<?xml version="1.0" encoding="UTF-8" standalone="no"?><!DOCTYPE svg PUBLIC "-//W3C//DTD SVG 1.1//EN" "http://www.w3.org/Graphics/SVG/1.1/DTD/svg11.dtd"><svg width="100%" height="100%" viewBox="0 0 128 128" version="1.1" xmlns="http://www.w3.org/2000/svg" xmlns:xlink="http://www.w3.org/1999/xlink" xml:space="preserve" xmlns:serif="http://www.serif.com/" style="fill-rule:evenodd;clip-rule:evenodd;stroke-linejoin:round;stroke-miterlimit:1.41421;"><rect id="align" x="0" y="0" width="128" height="128" style="fill:#fff;"/><g><path d="M94.185,41.842c0,-4.512 -3.663,-8.176 -8.175,-8.176l-44.237,0c-4.512,0 -8.176,3.664 -8.176,8.176c0,4.512 3.664,8.175 8.176,8.175l44.237,0c4.512,0 8.175,-3.663 8.175,-8.175Z"/><path d="M86.115,33.667l0.106,0.002l0.105,0.003l0.104,0.005l0.104,0.006l0.104,0.007l0.104,0.009l0.103,0.01l0.103,0.011l0.102,0.012l0.102,0.014l0.102,0.015l0.101,0.016l0.101,0.017l0.101,0.019l0.1,0.02l0.099,0.021l0.099,0.022l0.099,0.023l0.098,0.025l0.098,0.026l0.097,0.027l0.097,0.028l0.096,0.029l0.096,0.031l0.095,0.031l0.094,0.033l0.095,0.034l0.093,0.035l0.093,0.036l0.093,0.037l0.092,0.038l0.091,0.04l0.091,0.04l0.09,0.042l0.09,0.042l0.089,0.044l0.088,0.044l0.088,0.046l0.087,0.047l0.087,0.047l0.086,0.049l0.085,0.05l0.085,0.051l0.084,0.051l0.083,0.053l0.083,0.054l0.081,0.054l0.082,0.056l0.08,0.057l0.08,0.057l0.079,0.058l0.078,0.06l0.078,0.06l0.077,0.061l0.076,0.062l0.075,0.063l0.075,0.064l0.074,0.065l0.073,0.065l0.072,0.067l0.071,0.067l0.071,0.068l0.07,0.069l0.069,0.07l0.068,0.07l0.067,0.072l0.066,0.072l0.066,0.073l0.065,0.074l0.063,0.074l0.063,0.076l0.062,0.076l0.062,0.077l0.06,0.077l0.059,0.079l0.059,0.079l0.057,0.079l0.057,0.081l0.055,0.081l0.055,0.082l0.054,0.083l0.052,0.083l0.052,0.084l0.051,0.085l0.049,0.085l0.049,0.086l0.048,0.086l0.047,0.087l0.045,0.088l0.045,0.089l0.044,0.089l0.042,0.089l0.042,0.091l0.04,0.09l0.039,0.092l0.039,0.092l0.037,0.092l0.036,0.093l0.035,0.094l0.034,0.094l0.032,0.095l0.032,0.095l0.03,0.096l0.03,0.096l0.028,0.097l0.027,0.097l0.026,0.098l0.024,0.098l0.024,0.098l0.022,0.1l0.021,0.099l0.02,0.1l0.018,0.1l0.018,0.101l0.016,0.101l0.015,0.102l0.014,0.102l0.012,0.103l0.011,0.102l0.01,0.104l0.008,0.103l0.008,0.104l0.006,0.104l0.004,0.105l0.004,0.105l0.002,0.105l0,0.106l0,0.105l-0.002,0.106l-0.004,0.105l-0.004,0.104l-0.006,0.105l-0.008,0.103l-0.008,0.104l-0.01,0.103l-0.011,0.103l-0.012,0.102l-0.014,0.103l-0.015,0.101l-0.016,0.101l-0.018,0.101l-0.018,0.101l-0.02,0.1l-0.021,0.099l-0.022,0.099l-0.024,0.099l-0.024,0.098l-0.026,0.098l-0.027,0.097l-0.028,0.097l-0.03,0.096l-0.03,0.096l-0.032,0.095l-0.032,0.094l-0.034,0.095l-0.035,0.093l-0.036,0.093l-0.037,0.093l-0.039,0.092l-0.039,0.091l-0.04,0.091l-0.042,0.09l-0.042,0.09l-0.044,0.089l-0.045,0.088l-0.045,0.088l-0.047,0.087l-0.048,0.087l-0.049,0.086l-0.049,0.085l-0.051,0.085l-0.052,0.084l-0.052,0.083l-0.054,0.083l-0.055,0.082l-0.055,0.081l-0.057,0.08l-0.057,0.08l-0.059,0.079l-0.059,0.078l-0.06,0.078l-0.062,0.077l-0.062,0.076l-0.063,0.075l-0.063,0.075l-0.065,0.074l-0.066,0.073l-0.066,0.072l-0.067,0.071l-0.068,0.071l-0.069,0.07l-0.07,0.069l-0.071,0.068l-0.071,0.067l-0.072,0.066l-0.073,0.066l-0.074,0.065l-0.075,0.064l-0.075,0.062l-0.076,0.063l-0.077,0.061l-0.078,0.06l-0.078,0.059l-0.079,0.059l-0.08,0.057l-0.08,0.057l-0.082,0.055l-0.081,0.055l-0.083,0.054l-0.083,0.052l-0.084,0.052l-0.085,0.051l-0.085,0.05l-0.086,0.048l-0.087,0.048l-0.087,0.047l-0.088,0.045l-0.088,0.045l-0.089,0.044l-0.09,0.042l-0.09,0.042l-0.091,0.04l-0.091,0.039l-0.092,0.039l-0.093,0.037l-0.093,0.036l-0.093,0.035l-0.095,0.034l-0.094,0.032l-0.095,0.032l-0.096,0.031l-0.096,0.029l-0.097,0.028l-0.097,0.027l-0.098,0.026l-0.098,0.024l-0.099,0.024l-0.099,0.022l-0.099,0.021l-0.1,0.02l-0.101,0.019l-0.101,0.017l-0.101,0.016l-0.102,0.015l-0.102,0.014l-0.102,0.012l-0.103,0.011l-0.103,0.01l-0.104,0.008l-0.104,0.008l-0.104,0.006l-0.104,0.004l-0.105,0.004l-0.106,0.002l-0.105,0l-44.237,0l-0.106,0l-0.105,-0.002l-0.105,-0.004l-0.105,-0.004l-0.104,-0.006l-0.104,-0.008l-0.103,-0.008l-0.103,-0.01l-0.103,-0.011l-0.103,-0.012l-0.102,-0.014l-0.101,-0.015l-0.102,-0.016l-0.1,-0.017l-0.101,-0.019l-0.1,-0.02l-0.099,-0.021l-0.099,-0.022l-0.099,-0.024l-0.098,-0.024l-0.098,-0.026l-0.097,-0.027l-0.097,-0.028l-0.096,-0.029l-0.096,-0.031l-0.095,-0.032l-0.095,-0.032l-0.094,-0.034l-0.093,-0.035l-0.094,-0.036l-0.092,-0.037l-0.092,-0.039l-0.091,-0.039l-0.091,-0.04l-0.091,-0.042l-0.089,-0.042l-0.089,-0.044l-0.089,-0.045l-0.087,-0.045l-0.088,-0.047l-0.086,-0.048l-0.086,-0.048l-0.085,-0.05l-0.085,-0.051l-0.084,-0.052l-0.083,-0.052l-0.083,-0.054l-0.082,-0.055l-0.081,-0.055l-0.08,-0.057l-0.08,-0.057l-0.079,-0.059l-0.079,-0.059l-0.077,-0.06l-0.077,-0.061l-0.076,-0.063l-0.076,-0.062l-0.074,-0.064l-0.074,-0.065l-0.073,-0.066l-0.072,-0.066l-0.072,-0.067l-0.07,-0.068l-0.07,-0.069l-0.069,-0.07l-0.068,-0.071l-0.067,-0.071l-0.067,-0.072l-0.065,-0.073l-0.065,-0.074l-0.064,-0.075l-0.063,-0.075l-0.062,-0.076l-0.061,-0.077l-0.06,-0.078l-0.059,-0.078l-0.059,-0.079l-0.057,-0.08l-0.057,-0.08l-0.056,-0.081l-0.054,-0.082l-0.054,-0.083l-0.053,-0.083l-0.051,-0.084l-0.051,-0.085l-0.05,-0.085l-0.048,-0.086l-0.048,-0.087l-0.047,-0.087l-0.046,-0.088l-0.044,-0.088l-0.044,-0.089l-0.042,-0.09l-0.042,-0.09l-0.04,-0.091l-0.04,-0.091l-0.038,-0.092l-0.037,-0.093l-0.036,-0.093l-0.035,-0.093l-0.034,-0.095l-0.033,-0.094l-0.031,-0.095l-0.031,-0.096l-0.029,-0.096l-0.028,-0.097l-0.027,-0.097l-0.026,-0.098l-0.025,-0.098l-0.023,-0.099l-0.022,-0.099l-0.021,-0.099l-0.02,-0.1l-0.019,-0.101l-0.017,-0.101l-0.016,-0.101l-0.015,-0.101l-0.014,-0.103l-0.012,-0.102l-0.011,-0.103l-0.01,-0.103l-0.009,-0.104l-0.007,-0.103l-0.006,-0.105l-0.005,-0.104l-0.003,-0.105l-0.002,-0.106l-0.001,-0.105l0.001,-0.106l0.002,-0.105l0.003,-0.105l0.005,-0.105l0.006,-0.104l0.007,-0.104l0.009,-0.103l0.01,-0.104l0.011,-0.102l0.012,-0.103l0.014,-0.102l0.015,-0.102l0.016,-0.101l0.017,-0.101l0.019,-0.1l0.02,-0.1l0.021,-0.099l0.022,-0.1l0.023,-0.098l0.025,-0.098l0.026,-0.098l0.027,-0.097l0.028,-0.097l0.029,-0.096l0.031,-0.096l0.031,-0.095l0.033,-0.095l0.034,-0.094l0.035,-0.094l0.036,-0.093l0.037,-0.092l0.038,-0.092l0.04,-0.092l0.04,-0.09l0.042,-0.091l0.042,-0.089l0.044,-0.089l0.044,-0.089l0.046,-0.088l0.047,-0.087l0.048,-0.086l0.048,-0.086l0.05,-0.085l0.051,-0.085l0.051,-0.084l0.053,-0.083l0.054,-0.083l0.054,-0.082l0.056,-0.081l0.057,-0.081l0.057,-0.079l0.059,-0.079l0.059,-0.079l0.06,-0.077l0.061,-0.077l0.062,-0.076l0.063,-0.076l0.064,-0.074l0.065,-0.074l0.065,-0.073l0.067,-0.072l0.067,-0.072l0.068,-0.07l0.069,-0.07l0.07,-0.069l0.07,-0.068l0.072,-0.067l0.072,-0.067l0.073,-0.065l0.074,-0.065l0.074,-0.064l0.076,-0.063l0.076,-0.062l0.077,-0.061l0.077,-0.06l0.079,-0.06l0.079,-0.058l0.08,-0.057l0.08,-0.057l0.081,-0.056l0.082,-0.054l0.083,-0.054l0.083,-0.053l0.084,-0.051l0.085,-0.051l0.085,-0.05l0.086,-0.049l0.086,-0.047l0.088,-0.047l0.087,-0.046l0.089,-0.044l0.089,-0.044l0.089,-0.042l0.091,-0.042l0.091,-0.04l0.091,-0.04l0.092,-0.038l0.092,-0.037l0.094,-0.036l0.093,-0.035l0.094,-0.034l0.095,-0.033l0.095,-0.031l0.096,-0.031l0.096,-0.029l0.097,-0.028l0.097,-0.027l0.098,-0.026l0.098,-0.025l0.099,-0.023l0.099,-0.022l0.099,-0.021l0.1,-0.02l0.101,-0.019l0.1,-0.017l0.102,-0.016l0.101,-0.015l0.102,-0.014l0.103,-0.012l0.103,-0.011l0.103,-0.01l0.103,-0.009l0.104,-0.007l0.104,-0.006l0.105,-0.005l0.105,-0.003l0.105,-0.002l0.106,-0.001l44.237,0l0.105,0.001Zm-44.33,3.768l-0.07,0l-0.058,0.001l-0.057,0.002l-0.056,0.002l-0.057,0.004l-0.056,0.004l-0.056,0.004l-0.056,0.006l-0.056,0.006l-0.055,0.006l-0.055,0.008l-0.054,0.008l-0.055,0.008l-0.054,0.01l-0.054,0.01l-0.053,0.01l-0.054,0.011l-0.053,0.012l-0.053,0.013l-0.053,0.013l-0.052,0.014l-0.052,0.014l-0.052,0.015l-0.051,0.016l-0.051,0.016l-0.051,0.017l-0.051,0.018l-0.05,0.018l-0.05,0.019l-0.05,0.019l-0.05,0.02l-0.049,0.021l-0.049,0.021l-0.049,0.021l-0.049,0.023l-0.047,0.022l-0.048,0.024l-0.048,0.024l-0.047,0.024l-0.047,0.026l-0.047,0.025l-0.046,0.026l-0.046,0.027l-0.046,0.028l-0.045,0.028l-0.045,0.028l-0.044,0.029l-0.044,0.029l-0.045,0.031l-0.043,0.03l-0.043,0.031l-0.043,0.032l-0.043,0.032l-0.041,0.033l-0.042,0.033l-0.041,0.033l-0.041,0.034l-0.041,0.035l-0.04,0.035l-0.039,0.036l-0.039,0.036l-0.039,0.036l-0.038,0.037l-0.038,0.038l-0.038,0.037l-0.037,0.039l-0.036,0.038l-0.036,0.04l-0.036,0.039l-0.035,0.04l-0.035,0.041l-0.034,0.041l-0.033,0.041l-0.033,0.041l-0.033,0.043l-0.032,0.042l-0.032,0.042l-0.031,0.044l-0.03,0.043l-0.03,0.044l-0.03,0.045l-0.029,0.044l-0.028,0.045l-0.028,0.045l-0.028,0.046l-0.026,0.046l-0.027,0.046l-0.026,0.047l-0.025,0.047l-0.024,0.047l-0.024,0.048l-0.024,0.047l-0.022,0.048l-0.023,0.049l-0.021,0.049l-0.022,0.049l-0.02,0.049l-0.02,0.049l-0.019,0.051l-0.019,0.05l-0.018,0.05l-0.018,0.051l-0.016,0.051l-0.017,0.051l-0.015,0.051l-0.016,0.052l-0.014,0.052l-0.014,0.053l-0.013,0.052l-0.013,0.053l-0.011,0.053l-0.012,0.053l-0.01,0.054l-0.01,0.054l-0.01,0.054l-0.008,0.054l-0.008,0.055l-0.008,0.055l-0.006,0.055l-0.006,0.056l-0.006,0.055l-0.004,0.057l-0.004,0.056l-0.004,0.056l-0.002,0.057l-0.002,0.057l-0.001,0.058l0,0.058l0,0.058l0.001,0.057l0.002,0.057l0.002,0.057l0.004,0.057l0.004,0.056l0.004,0.056l0.006,0.056l0.006,0.056l0.006,0.055l0.008,0.055l0.008,0.054l0.008,0.055l0.01,0.054l0.01,0.054l0.01,0.053l0.012,0.054l0.011,0.053l0.013,0.053l0.013,0.052l0.014,0.052l0.014,0.053l0.016,0.051l0.015,0.052l0.017,0.051l0.016,0.051l0.018,0.051l0.018,0.05l0.019,0.05l0.019,0.05l0.02,0.05l0.02,0.049l0.022,0.049l0.021,0.049l0.023,0.049l0.022,0.047l0.024,0.048l0.024,0.048l0.024,0.047l0.025,0.047l0.026,0.047l0.027,0.046l0.026,0.046l0.028,0.046l0.028,0.045l0.028,0.045l0.029,0.044l0.03,0.044l0.03,0.044l0.03,0.044l0.031,0.043l0.032,0.043l0.032,0.042l0.033,0.042l0.033,0.042l0.033,0.041l0.034,0.041l0.035,0.041l0.035,0.04l0.036,0.039l0.036,0.039l0.036,0.039l0.037,0.038l0.038,0.038l0.038,0.038l0.038,0.037l0.039,0.036l0.039,0.036l0.039,0.035l0.04,0.036l0.041,0.034l0.041,0.034l0.041,0.034l0.041,0.033l0.042,0.033l0.043,0.032l0.043,0.031l0.043,0.031l0.043,0.031l0.045,0.03l0.044,0.03l0.044,0.029l0.045,0.028l0.045,0.028l0.046,0.027l0.046,0.027l0.046,0.027l0.047,0.025l0.047,0.025l0.047,0.025l0.048,0.024l0.048,0.023l0.047,0.023l0.049,0.022l0.049,0.022l0.049,0.021l0.049,0.021l0.05,0.02l0.049,0.019l0.051,0.019l0.05,0.018l0.051,0.017l0.051,0.017l0.051,0.017l0.052,0.015l0.051,0.015l0.052,0.015l0.052,0.014l0.053,0.013l0.053,0.012l0.053,0.012l0.053,0.011l0.054,0.011l0.054,0.01l0.054,0.009l0.054,0.009l0.055,0.008l0.055,0.007l0.055,0.007l0.056,0.006l0.056,0.005l0.056,0.005l0.056,0.004l0.057,0.003l0.056,0.003l0.057,0.002l0.058,0.001l0.07,0l44.213,0l0.07,0l0.057,-0.001l0.057,-0.002l0.057,-0.003l0.057,-0.003l0.056,-0.004l0.056,-0.005l0.056,-0.005l0.056,-0.006l0.055,-0.007l0.055,-0.007l0.054,-0.008l0.055,-0.009l0.054,-0.009l0.054,-0.01l0.053,-0.011l0.054,-0.011l0.053,-0.012l0.053,-0.012l0.052,-0.013l0.053,-0.014l0.051,-0.015l0.052,-0.015l0.052,-0.015l0.051,-0.017l0.051,-0.017l0.05,-0.017l0.051,-0.018l0.051,-0.019l0.049,-0.019l0.05,-0.02l0.049,-0.021l0.049,-0.021l0.049,-0.022l0.048,-0.022l0.048,-0.023l0.048,-0.023l0.048,-0.024l0.047,-0.025l0.047,-0.025l0.047,-0.026l0.045,-0.026l0.047,-0.027l0.046,-0.027l0.045,-0.028l0.045,-0.028l0.044,-0.029l0.044,-0.03l0.044,-0.03l0.044,-0.03l0.043,-0.032l0.043,-0.031l0.043,-0.033l0.041,-0.032l0.042,-0.033l0.041,-0.034l0.041,-0.034l0.04,-0.034l0.04,-0.035l0.04,-0.036l0.039,-0.036l0.039,-0.036l0.038,-0.038l0.038,-0.037l0.038,-0.038l0.036,-0.038l0.037,-0.039l0.036,-0.039l0.035,-0.039l0.035,-0.04l0.035,-0.041l0.034,-0.041l0.034,-0.041l0.033,-0.042l0.033,-0.042l0.032,-0.042l0.032,-0.043l0.031,-0.043l0.03,-0.044l0.03,-0.044l0.03,-0.044l0.028,-0.044l0.029,-0.045l0.028,-0.046l0.027,-0.045l0.027,-0.047l0.026,-0.045l0.026,-0.047l0.025,-0.047l0.025,-0.047l0.024,-0.048l0.023,-0.048l0.023,-0.048l0.023,-0.049l0.021,-0.048l0.021,-0.049l0.021,-0.05l0.02,-0.049l0.019,-0.049l0.018,-0.05l0.019,-0.052l0.017,-0.05l0.017,-0.05l0.016,-0.052l0.016,-0.052l0.015,-0.052l0.015,-0.051l0.014,-0.053l0.013,-0.053l0.012,-0.052l0.012,-0.053l0.011,-0.053l0.011,-0.054l0.01,-0.054l0.009,-0.054l0.009,-0.055l0.008,-0.054l0.007,-0.055l0.007,-0.056l0.006,-0.055l0.005,-0.055l0.005,-0.057l0.004,-0.056l0.003,-0.057l0.003,-0.057l0.002,-0.057l0.001,-0.057l0,-0.058l0,-0.058l-0.001,-0.057l-0.002,-0.057l-0.003,-0.058l-0.003,-0.056l-0.004,-0.056l-0.005,-0.057l-0.005,-0.056l-0.006,-0.054l-0.007,-0.056l-0.007,-0.055l-0.008,-0.054l-0.009,-0.055l-0.009,-0.054l-0.01,-0.054l-0.011,-0.054l-0.011,-0.053l-0.012,-0.053l-0.012,-0.053l-0.013,-0.052l-0.014,-0.053l-0.015,-0.052l-0.015,-0.051l-0.016,-0.052l-0.016,-0.052l-0.017,-0.05l-0.017,-0.051l-0.019,-0.051l-0.018,-0.05l-0.019,-0.049l-0.02,-0.05l-0.021,-0.05l-0.021,-0.049l-0.021,-0.048l-0.023,-0.048l-0.023,-0.049l-0.023,-0.048l-0.024,-0.047l-0.025,-0.047l-0.025,-0.047l-0.026,-0.047l-0.026,-0.046l-0.027,-0.046l-0.027,-0.045l-0.028,-0.046l-0.029,-0.045l-0.029,-0.045l-0.029,-0.044l-0.03,-0.044l-0.03,-0.043l-0.031,-0.043l-0.032,-0.043l-0.032,-0.043l-0.033,-0.042l-0.033,-0.041l-0.034,-0.041l-0.034,-0.041l-0.035,-0.041l-0.035,-0.04l-0.035,-0.039l-0.036,-0.039l-0.037,-0.039l-0.037,-0.039l-0.037,-0.037l-0.038,-0.038l-0.038,-0.037l-0.039,-0.036l-0.039,-0.036l-0.04,-0.036l-0.04,-0.035l-0.04,-0.035l-0.041,-0.033l-0.041,-0.034l-0.042,-0.033l-0.042,-0.033l-0.042,-0.032l-0.043,-0.032l-0.043,-0.031l-0.044,-0.031l-0.044,-0.03l-0.044,-0.029l-0.044,-0.029l-0.045,-0.028l-0.045,-0.028l-0.046,-0.028l-0.047,-0.027l-0.045,-0.026l-0.047,-0.025l-0.047,-0.026l-0.047,-0.024l-0.048,-0.024l-0.048,-0.024l-0.048,-0.023l-0.048,-0.022l-0.049,-0.022l-0.049,-0.021l-0.049,-0.02l-0.05,-0.02l-0.05,-0.019l-0.05,-0.019l-0.051,-0.018l-0.05,-0.018l-0.051,-0.017l-0.051,-0.016l-0.052,-0.016l-0.052,-0.015l-0.052,-0.014l-0.052,-0.014l-0.052,-0.013l-0.053,-0.013l-0.053,-0.012l-0.054,-0.011l-0.053,-0.01l-0.054,-0.01l-0.054,-0.01l-0.055,-0.008l-0.054,-0.008l-0.055,-0.008l-0.055,-0.006l-0.056,-0.006l-0.056,-0.006l-0.056,-0.004l-0.056,-0.004l-0.057,-0.004l-0.057,-0.002l-0.057,-0.002l-0.057,-0.001l-0.07,0l-44.213,0Z"/><path d="M60.743,64.787c0,-3.592 -2.916,-6.508 -6.508,-6.508l-24.361,0c-3.592,0 -6.508,2.916 -6.508,6.508c0,3.592 2.916,6.508 6.508,6.508l24.361,0c3.592,0 6.508,-2.916 6.508,-6.508Z"/><path d="M54.319,58.28l0.084,0.002l0.084,0.002l0.083,0.004l0.083,0.005l0.083,0.005l0.082,0.007l0.082,0.008l0.082,0.009l0.082,0.01l0.081,0.011l0.081,0.011l0.08,0.013l0.081,0.014l0.08,0.015l0.079,0.016l0.079,0.016l0.079,0.018l0.079,0.019l0.078,0.019l0.078,0.021l0.077,0.021l0.077,0.023l0.077,0.023l0.076,0.024l0.076,0.026l0.075,0.026l0.075,0.027l0.074,0.027l0.075,0.029l0.073,0.03l0.073,0.03l0.073,0.032l0.072,0.032l0.072,0.033l0.072,0.034l0.071,0.034l0.07,0.036l0.07,0.036l0.069,0.037l0.069,0.038l0.069,0.039l0.067,0.04l0.068,0.04l0.067,0.041l0.066,0.042l0.066,0.043l0.065,0.043l0.064,0.045l0.065,0.045l0.063,0.046l0.063,0.046l0.062,0.047l0.062,0.048l0.061,0.049l0.061,0.049l0.06,0.05l0.059,0.051l0.059,0.052l0.058,0.052l0.058,0.053l0.056,0.053l0.057,0.055l0.055,0.054l0.055,0.056l0.054,0.056l0.054,0.057l0.053,0.057l0.052,0.059l0.051,0.058l0.051,0.06l0.05,0.06l0.05,0.06l0.048,0.061l0.048,0.062l0.048,0.063l0.046,0.062l0.046,0.064l0.045,0.064l0.044,0.065l0.044,0.065l0.042,0.066l0.042,0.066l0.041,0.067l0.041,0.067l0.039,0.068l0.039,0.068l0.038,0.069l0.037,0.07l0.037,0.07l0.035,0.07l0.035,0.071l0.034,0.071l0.033,0.072l0.032,0.072l0.031,0.073l0.031,0.073l0.029,0.074l0.029,0.074l0.028,0.075l0.027,0.075l0.026,0.075l0.025,0.076l0.024,0.076l0.024,0.076l0.022,0.077l0.022,0.078l0.02,0.078l0.02,0.078l0.018,0.078l0.018,0.079l0.017,0.079l0.016,0.08l0.014,0.08l0.014,0.08l0.013,0.081l0.012,0.081l0.011,0.081l0.01,0.081l0.008,0.082l0.008,0.082l0.007,0.083l0.006,0.083l0.005,0.083l0.003,0.083l0.003,0.083l0.002,0.084l0,0.084l0,0.084l-0.002,0.084l-0.003,0.084l-0.003,0.083l-0.005,0.083l-0.006,0.083l-0.007,0.082l-0.008,0.082l-0.008,0.082l-0.01,0.082l-0.011,0.081l-0.012,0.081l-0.013,0.08l-0.014,0.081l-0.014,0.08l-0.016,0.079l-0.017,0.079l-0.018,0.079l-0.018,0.079l-0.02,0.078l-0.02,0.078l-0.022,0.077l-0.022,0.077l-0.024,0.077l-0.024,0.076l-0.025,0.076l-0.026,0.075l-0.027,0.075l-0.028,0.074l-0.029,0.074l-0.029,0.074l-0.031,0.073l-0.031,0.073l-0.032,0.072l-0.033,0.072l-0.034,0.072l-0.035,0.07l-0.035,0.071l-0.037,0.07l-0.037,0.069l-0.038,0.069l-0.039,0.068l-0.039,0.068l-0.041,0.068l-0.041,0.067l-0.042,0.066l-0.042,0.066l-0.044,0.065l-0.044,0.064l-0.045,0.064l-0.046,0.064l-0.046,0.063l-0.048,0.062l-0.048,0.062l-0.048,0.061l-0.05,0.061l-0.05,0.06l-0.051,0.059l-0.051,0.059l-0.052,0.058l-0.053,0.057l-0.054,0.057l-0.054,0.056l-0.055,0.056l-0.055,0.055l-0.057,0.054l-0.056,0.054l-0.058,0.053l-0.058,0.052l-0.059,0.051l-0.059,0.051l-0.06,0.05l-0.061,0.05l-0.061,0.048l-0.062,0.048l-0.062,0.047l-0.063,0.047l-0.063,0.046l-0.065,0.045l-0.064,0.044l-0.065,0.043l-0.066,0.043l-0.066,0.042l-0.067,0.041l-0.068,0.041l-0.067,0.039l-0.069,0.039l-0.069,0.038l-0.069,0.037l-0.07,0.037l-0.07,0.035l-0.071,0.035l-0.072,0.034l-0.072,0.033l-0.072,0.032l-0.073,0.031l-0.073,0.031l-0.073,0.029l-0.075,0.029l-0.074,0.028l-0.075,0.027l-0.075,0.026l-0.076,0.025l-0.076,0.024l-0.077,0.024l-0.077,0.022l-0.077,0.021l-0.078,0.021l-0.078,0.02l-0.079,0.018l-0.079,0.018l-0.079,0.017l-0.079,0.015l-0.08,0.015l-0.081,0.014l-0.08,0.013l-0.081,0.012l-0.081,0.011l-0.082,0.01l-0.082,0.008l-0.082,0.008l-0.082,0.007l-0.083,0.006l-0.083,0.005l-0.083,0.003l-0.084,0.003l-0.084,0.001l-0.084,0.001l-24.361,0l-0.084,-0.001l-0.084,-0.001l-0.083,-0.003l-0.084,-0.003l-0.083,-0.005l-0.082,-0.006l-0.083,-0.007l-0.082,-0.008l-0.082,-0.008l-0.081,-0.01l-0.082,-0.011l-0.081,-0.012l-0.08,-0.013l-0.08,-0.014l-0.08,-0.015l-0.08,-0.015l-0.079,-0.017l-0.079,-0.018l-0.078,-0.018l-0.079,-0.02l-0.077,-0.021l-0.078,-0.021l-0.077,-0.022l-0.076,-0.024l-0.077,-0.024l-0.075,-0.025l-0.076,-0.026l-0.075,-0.027l-0.074,-0.028l-0.074,-0.029l-0.074,-0.029l-0.073,-0.031l-0.073,-0.031l-0.072,-0.032l-0.072,-0.033l-0.071,-0.034l-0.071,-0.035l-0.071,-0.035l-0.07,-0.037l-0.069,-0.037l-0.069,-0.038l-0.068,-0.039l-0.068,-0.039l-0.067,-0.041l-0.067,-0.041l-0.067,-0.042l-0.065,-0.043l-0.066,-0.043l-0.064,-0.044l-0.064,-0.045l-0.064,-0.046l-0.063,-0.047l-0.062,-0.047l-0.062,-0.048l-0.061,-0.048l-0.061,-0.05l-0.06,-0.05l-0.059,-0.051l-0.059,-0.051l-0.058,-0.052l-0.057,-0.053l-0.057,-0.054l-0.056,-0.054l-0.056,-0.055l-0.055,-0.056l-0.054,-0.056l-0.053,-0.057l-0.053,-0.057l-0.053,-0.058l-0.051,-0.059l-0.051,-0.059l-0.05,-0.06l-0.049,-0.061l-0.049,-0.061l-0.048,-0.062l-0.047,-0.062l-0.047,-0.063l-0.045,-0.064l-0.045,-0.064l-0.045,-0.064l-0.043,-0.065l-0.043,-0.066l-0.042,-0.066l-0.041,-0.067l-0.04,-0.068l-0.04,-0.068l-0.039,-0.068l-0.038,-0.069l-0.037,-0.069l-0.036,-0.07l-0.036,-0.071l-0.035,-0.07l-0.034,-0.072l-0.033,-0.072l-0.032,-0.072l-0.031,-0.073l-0.031,-0.073l-0.029,-0.074l-0.029,-0.074l-0.028,-0.074l-0.027,-0.075l-0.026,-0.075l-0.025,-0.076l-0.024,-0.076l-0.023,-0.077l-0.023,-0.077l-0.021,-0.077l-0.021,-0.078l-0.019,-0.078l-0.019,-0.079l-0.018,-0.079l-0.016,-0.079l-0.016,-0.079l-0.015,-0.08l-0.014,-0.081l-0.013,-0.08l-0.012,-0.081l-0.01,-0.081l-0.01,-0.082l-0.009,-0.082l-0.008,-0.082l-0.007,-0.082l-0.006,-0.083l-0.004,-0.083l-0.004,-0.083l-0.003,-0.084l-0.001,-0.084l-0.001,-0.084l0.001,-0.084l0.001,-0.084l0.003,-0.083l0.004,-0.083l0.004,-0.083l0.006,-0.083l0.007,-0.083l0.008,-0.082l0.009,-0.082l0.01,-0.081l0.01,-0.081l0.012,-0.081l0.013,-0.081l0.014,-0.08l0.015,-0.08l0.016,-0.08l0.016,-0.079l0.018,-0.079l0.019,-0.078l0.019,-0.078l0.021,-0.078l0.021,-0.078l0.023,-0.077l0.023,-0.076l0.024,-0.076l0.025,-0.076l0.026,-0.075l0.027,-0.075l0.028,-0.075l0.029,-0.074l0.029,-0.074l0.031,-0.073l0.031,-0.073l0.032,-0.072l0.033,-0.072l0.034,-0.071l0.035,-0.071l0.036,-0.07l0.036,-0.07l0.037,-0.07l0.038,-0.069l0.039,-0.068l0.04,-0.068l0.04,-0.067l0.041,-0.067l0.042,-0.066l0.043,-0.066l0.043,-0.065l0.045,-0.065l0.045,-0.064l0.045,-0.064l0.047,-0.062l0.047,-0.063l0.048,-0.062l0.049,-0.061l0.049,-0.06l0.05,-0.06l0.051,-0.06l0.051,-0.058l0.053,-0.059l0.053,-0.057l0.053,-0.057l0.054,-0.056l0.055,-0.056l0.056,-0.054l0.056,-0.055l0.057,-0.053l0.057,-0.053l0.058,-0.052l0.059,-0.052l0.059,-0.051l0.06,-0.05l0.061,-0.049l0.061,-0.049l0.062,-0.048l0.062,-0.047l0.063,-0.046l0.064,-0.046l0.064,-0.045l0.064,-0.045l0.066,-0.043l0.065,-0.043l0.067,-0.042l0.067,-0.041l0.067,-0.04l0.068,-0.04l0.068,-0.039l0.069,-0.038l0.069,-0.037l0.07,-0.036l0.071,-0.036l0.071,-0.034l0.071,-0.034l0.072,-0.033l0.072,-0.032l0.073,-0.032l0.073,-0.03l0.074,-0.03l0.074,-0.029l0.074,-0.027l0.075,-0.027l0.076,-0.026l0.075,-0.026l0.077,-0.024l0.076,-0.023l0.077,-0.023l0.078,-0.021l0.077,-0.021l0.079,-0.019l0.078,-0.019l0.079,-0.018l0.079,-0.016l0.08,-0.016l0.08,-0.015l0.08,-0.014l0.08,-0.013l0.081,-0.011l0.082,-0.011l0.081,-0.01l0.082,-0.009l0.082,-0.008l0.083,-0.007l0.082,-0.005l0.083,-0.005l0.084,-0.004l0.083,-0.002l0.084,-0.002l0.084,-0.001l24.361,0l0.084,0.001Zm-24.436,2.745l-0.058,0l-0.049,0.001l-0.049,0.002l-0.049,0.002l-0.048,0.002l-0.048,0.004l-0.048,0.004l-0.047,0.004l-0.048,0.005l-0.047,0.006l-0.047,0.006l-0.046,0.007l-0.047,0.008l-0.046,0.008l-0.046,0.008l-0.046,0.009l-0.045,0.01l-0.046,0.01l-0.045,0.011l-0.045,0.011l-0.044,0.012l-0.045,0.012l-0.044,0.013l-0.044,0.013l-0.044,0.014l-0.044,0.015l-0.043,0.015l-0.043,0.015l-0.043,0.016l-0.043,0.017l-0.042,0.017l-0.042,0.017l-0.042,0.018l-0.041,0.019l-0.042,0.019l-0.041,0.019l-0.041,0.02l-0.041,0.021l-0.04,0.021l-0.04,0.021l-0.04,0.022l-0.039,0.023l-0.04,0.023l-0.039,0.023l-0.038,0.024l-0.039,0.024l-0.038,0.025l-0.037,0.025l-0.038,0.026l-0.037,0.026l-0.037,0.027l-0.036,0.026l-0.036,0.028l-0.036,0.028l-0.036,0.028l-0.035,0.028l-0.035,0.029l-0.034,0.03l-0.035,0.03l-0.033,0.03l-0.034,0.031l-0.033,0.031l-0.032,0.032l-0.033,0.032l-0.031,0.032l-0.032,0.032l-0.031,0.034l-0.031,0.033l-0.03,0.034l-0.03,0.034l-0.03,0.034l-0.029,0.035l-0.028,0.036l-0.029,0.035l-0.028,0.036l-0.027,0.036l-0.027,0.036l-0.026,0.037l-0.027,0.038l-0.025,0.037l-0.025,0.037l-0.025,0.039l-0.024,0.038l-0.024,0.039l-0.024,0.039l-0.023,0.039l-0.022,0.04l-0.022,0.039l-0.021,0.041l-0.021,0.04l-0.021,0.04l-0.02,0.041l-0.019,0.041l-0.019,0.042l-0.019,0.041l-0.018,0.042l-0.017,0.042l-0.017,0.042l-0.017,0.044l-0.016,0.042l-0.015,0.043l-0.015,0.043l-0.015,0.044l-0.014,0.044l-0.013,0.044l-0.013,0.044l-0.012,0.045l-0.012,0.044l-0.011,0.045l-0.011,0.045l-0.01,0.046l-0.01,0.045l-0.009,0.046l-0.009,0.046l-0.008,0.046l-0.007,0.047l-0.007,0.047l-0.006,0.047l-0.006,0.047l-0.005,0.047l-0.004,0.047l-0.004,0.048l-0.004,0.048l-0.003,0.049l-0.002,0.048l-0.001,0.049l-0.001,0.049l0,0.049l0,0.049l0.001,0.05l0.001,0.048l0.002,0.049l0.003,0.048l0.004,0.048l0.004,0.048l0.004,0.047l0.005,0.048l0.006,0.047l0.006,0.047l0.007,0.047l0.007,0.046l0.008,0.046l0.009,0.046l0.009,0.046l0.01,0.046l0.01,0.045l0.011,0.045l0.011,0.045l0.012,0.045l0.012,0.044l0.013,0.045l0.013,0.043l0.014,0.044l0.015,0.044l0.015,0.044l0.015,0.042l0.016,0.043l0.017,0.043l0.017,0.042l0.017,0.042l0.018,0.042l0.019,0.042l0.019,0.041l0.019,0.041l0.02,0.041l0.021,0.04l0.021,0.041l0.021,0.04l0.022,0.04l0.023,0.039l0.022,0.04l0.024,0.039l0.024,0.038l0.024,0.039l0.025,0.038l0.025,0.037l0.025,0.038l0.027,0.037l0.026,0.037l0.027,0.036l0.027,0.037l0.028,0.036l0.029,0.035l0.028,0.035l0.029,0.035l0.03,0.035l0.03,0.034l0.03,0.033l0.031,0.034l0.031,0.033l0.032,0.033l0.031,0.032l0.033,0.032l0.032,0.031l0.033,0.031l0.034,0.031l0.033,0.03l0.035,0.03l0.034,0.03l0.035,0.029l0.035,0.029l0.036,0.028l0.036,0.028l0.036,0.027l0.036,0.027l0.037,0.027l0.037,0.026l0.038,0.025l0.037,0.026l0.038,0.024l0.039,0.025l0.038,0.023l0.039,0.024l0.04,0.023l0.039,0.022l0.04,0.022l0.04,0.021l0.04,0.021l0.041,0.021l0.041,0.02l0.041,0.019l0.042,0.02l0.041,0.018l0.042,0.018l0.042,0.018l0.042,0.017l0.043,0.016l0.043,0.016l0.043,0.016l0.043,0.015l0.044,0.014l0.044,0.014l0.044,0.013l0.044,0.013l0.044,0.013l0.045,0.011l0.045,0.012l0.045,0.01l0.045,0.011l0.046,0.009l0.046,0.009l0.046,0.009l0.046,0.008l0.047,0.007l0.046,0.007l0.047,0.006l0.047,0.006l0.048,0.005l0.047,0.005l0.048,0.004l0.048,0.003l0.048,0.003l0.049,0.002l0.049,0.001l0.049,0.001l0.058,0.001l24.344,0l0.057,-0.001l0.05,-0.001l0.048,-0.001l0.049,-0.002l0.048,-0.003l0.048,-0.003l0.048,-0.004l0.048,-0.005l0.047,-0.005l0.047,-0.006l0.047,-0.006l0.047,-0.007l0.046,-0.007l0.046,-0.008l0.046,-0.009l0.046,-0.009l0.046,-0.009l0.045,-0.011l0.045,-0.01l0.045,-0.012l0.045,-0.011l0.044,-0.013l0.045,-0.013l0.044,-0.013l0.043,-0.014l0.044,-0.014l0.043,-0.015l0.043,-0.016l0.043,-0.016l0.043,-0.016l0.042,-0.017l0.042,-0.018l0.042,-0.018l0.042,-0.019l0.041,-0.019l0.041,-0.019l0.041,-0.02l0.041,-0.021l0.04,-0.021l0.04,-0.021l0.04,-0.022l0.04,-0.022l0.039,-0.023l0.039,-0.024l0.038,-0.023l0.039,-0.025l0.038,-0.024l0.038,-0.026l0.037,-0.025l0.037,-0.026l0.037,-0.027l0.037,-0.027l0.035,-0.027l0.036,-0.028l0.036,-0.029l0.035,-0.028l0.035,-0.029l0.035,-0.03l0.034,-0.03l0.033,-0.03l0.034,-0.031l0.033,-0.031l0.033,-0.031l0.032,-0.032l0.032,-0.032l0.031,-0.033l0.031,-0.033l0.031,-0.034l0.03,-0.033l0.03,-0.035l0.03,-0.034l0.029,-0.035l0.029,-0.035l0.028,-0.035l0.028,-0.036l0.027,-0.037l0.027,-0.036l0.027,-0.037l0.026,-0.037l0.026,-0.038l0.025,-0.037l0.024,-0.038l0.025,-0.039l0.023,-0.038l0.024,-0.039l0.023,-0.04l0.022,-0.039l0.022,-0.04l0.021,-0.04l0.021,-0.04l0.021,-0.041l0.02,-0.041l0.02,-0.041l0.019,-0.041l0.018,-0.042l0.018,-0.042l0.018,-0.042l0.017,-0.042l0.016,-0.043l0.016,-0.043l0.016,-0.043l0.015,-0.043l0.014,-0.044l0.014,-0.044l0.013,-0.043l0.013,-0.045l0.013,-0.044l0.011,-0.045l0.012,-0.045l0.01,-0.045l0.011,-0.045l0.009,-0.046l0.009,-0.045l0.009,-0.047l0.008,-0.046l0.007,-0.046l0.007,-0.047l0.006,-0.047l0.006,-0.047l0.005,-0.048l0.005,-0.048l0.004,-0.047l0.003,-0.048l0.003,-0.048l0.002,-0.049l0.002,-0.049l0,-0.049l0.001,-0.049l-0.001,-0.049l0,-0.049l-0.002,-0.049l-0.002,-0.048l-0.003,-0.049l-0.003,-0.048l-0.004,-0.047l-0.005,-0.048l-0.005,-0.048l-0.006,-0.047l-0.006,-0.046l-0.007,-0.047l-0.007,-0.046l-0.008,-0.047l-0.009,-0.046l-0.009,-0.046l-0.009,-0.045l-0.011,-0.046l-0.01,-0.044l-0.012,-0.046l-0.011,-0.044l-0.013,-0.045l-0.013,-0.044l-0.013,-0.044l-0.014,-0.044l-0.014,-0.044l-0.015,-0.043l-0.016,-0.043l-0.016,-0.043l-0.016,-0.043l-0.017,-0.042l-0.018,-0.042l-0.018,-0.042l-0.018,-0.041l-0.019,-0.042l-0.02,-0.041l-0.02,-0.041l-0.021,-0.04l-0.021,-0.041l-0.021,-0.04l-0.022,-0.039l-0.022,-0.04l-0.023,-0.039l-0.024,-0.039l-0.023,-0.039l-0.025,-0.038l-0.024,-0.038l-0.026,-0.038l-0.025,-0.038l-0.026,-0.037l-0.027,-0.036l-0.027,-0.037l-0.027,-0.036l-0.028,-0.036l-0.028,-0.035l-0.029,-0.036l-0.029,-0.035l-0.029,-0.034l-0.031,-0.034l-0.03,-0.034l-0.031,-0.033l-0.031,-0.033l-0.031,-0.033l-0.032,-0.032l-0.032,-0.032l-0.033,-0.032l-0.033,-0.031l-0.034,-0.031l-0.033,-0.03l-0.034,-0.03l-0.035,-0.03l-0.035,-0.028l-0.035,-0.029l-0.036,-0.029l-0.036,-0.027l-0.035,-0.028l-0.037,-0.026l-0.037,-0.027l-0.037,-0.026l-0.037,-0.026l-0.038,-0.025l-0.038,-0.025l-0.039,-0.024l-0.038,-0.024l-0.039,-0.023l-0.039,-0.023l-0.04,-0.023l-0.04,-0.022l-0.04,-0.021l-0.04,-0.021l-0.041,-0.021l-0.041,-0.02l-0.041,-0.019l-0.041,-0.019l-0.042,-0.019l-0.042,-0.018l-0.042,-0.017l-0.042,-0.017l-0.043,-0.017l-0.043,-0.016l-0.043,-0.015l-0.043,-0.015l-0.043,-0.015l-0.044,-0.014l-0.044,-0.013l-0.045,-0.013l-0.044,-0.012l-0.045,-0.012l-0.044,-0.011l-0.046,-0.011l-0.045,-0.01l-0.046,-0.01l-0.045,-0.009l-0.047,-0.008l-0.046,-0.008l-0.046,-0.008l-0.047,-0.007l-0.047,-0.006l-0.047,-0.006l-0.047,-0.005l-0.048,-0.004l-0.048,-0.004l-0.048,-0.004l-0.048,-0.002l-0.049,-0.002l-0.049,-0.002l-0.049,-0.001l-0.057,0l-24.344,0Z"/><path d="M35.501,86.127c0,-4.495 -3.649,-8.144 -8.144,-8.144c-4.495,0 -8.144,3.649 -8.144,8.144l0,0.062c0,4.495 3.649,8.145 8.144,8.145c4.495,0 8.144,-3.65 8.144,-8.145l0,-0.062Z"/><path d="M27.462,77.983l0.105,0.002l0.105,0.004l0.104,0.004l0.104,0.006l0.103,0.007l0.104,0.009l0.102,0.01l0.103,0.011l0.102,0.012l0.101,0.014l0.102,0.015l0.101,0.016l0.1,0.017l0.1,0.019l0.1,0.019l0.099,0.021l0.098,0.022l0.099,0.024l0.097,0.024l0.098,0.026l0.097,0.027l0.096,0.028l0.096,0.029l0.095,0.03l0.095,0.032l0.094,0.032l0.094,0.034l0.093,0.035l0.093,0.036l0.092,0.037l0.092,0.038l0.091,0.039l0.09,0.041l0.09,0.041l0.09,0.042l0.088,0.044l0.088,0.044l0.088,0.046l0.087,0.046l0.086,0.048l0.086,0.048l0.085,0.05l0.084,0.05l0.083,0.052l0.083,0.052l0.083,0.054l0.081,0.054l0.081,0.056l0.08,0.056l0.08,0.057l0.079,0.059l0.078,0.059l0.077,0.06l0.077,0.061l0.075,0.061l0.075,0.063l0.075,0.064l0.073,0.064l0.073,0.065l0.072,0.067l0.071,0.067l0.07,0.067l0.07,0.069l0.068,0.07l0.068,0.07l0.067,0.071l0.067,0.072l0.065,0.073l0.064,0.073l0.064,0.075l0.063,0.075l0.061,0.075l0.061,0.077l0.06,0.077l0.059,0.078l0.059,0.079l0.057,0.08l0.056,0.08l0.056,0.081l0.054,0.081l0.053,0.083l0.053,0.083l0.052,0.083l0.05,0.084l0.05,0.085l0.048,0.086l0.048,0.086l0.046,0.087l0.046,0.088l0.044,0.088l0.044,0.088l0.042,0.09l0.041,0.09l0.041,0.09l0.039,0.091l0.038,0.092l0.037,0.092l0.036,0.093l0.035,0.093l0.033,0.094l0.033,0.094l0.032,0.095l0.03,0.095l0.029,0.096l0.028,0.096l0.027,0.097l0.026,0.098l0.024,0.097l0.024,0.099l0.022,0.098l0.021,0.099l0.019,0.1l0.019,0.1l0.017,0.1l0.016,0.101l0.015,0.102l0.014,0.101l0.012,0.102l0.011,0.103l0.01,0.102l0.009,0.104l0.007,0.103l0.006,0.104l0.004,0.104l0.004,0.105l0.002,0.105l0,0.105l0,0.062l0,0.106l-0.002,0.105l-0.004,0.104l-0.004,0.104l-0.006,0.104l-0.007,0.104l-0.009,0.103l-0.01,0.103l-0.011,0.102l-0.012,0.102l-0.014,0.102l-0.015,0.101l-0.016,0.101l-0.017,0.1l-0.019,0.1l-0.019,0.1l-0.021,0.099l-0.022,0.099l-0.024,0.098l-0.024,0.098l-0.026,0.097l-0.027,0.097l-0.028,0.096l-0.029,0.096l-0.03,0.096l-0.032,0.094l-0.033,0.095l-0.033,0.094l-0.035,0.093l-0.036,0.092l-0.037,0.093l-0.038,0.091l-0.039,0.091l-0.041,0.091l-0.041,0.09l-0.042,0.089l-0.044,0.089l-0.044,0.088l-0.046,0.087l-0.046,0.087l-0.048,0.086l-0.048,0.086l-0.05,0.085l-0.05,0.084l-0.052,0.084l-0.053,0.083l-0.053,0.082l-0.054,0.082l-0.056,0.081l-0.056,0.08l-0.057,0.079l-0.059,0.079l-0.059,0.078l-0.06,0.077l-0.061,0.077l-0.061,0.076l-0.063,0.075l-0.064,0.074l-0.064,0.074l-0.065,0.072l-0.067,0.072l-0.067,0.071l-0.068,0.071l-0.068,0.069l-0.07,0.069l-0.07,0.068l-0.071,0.067l-0.072,0.066l-0.073,0.065l-0.073,0.065l-0.075,0.063l-0.075,0.063l-0.075,0.062l-0.077,0.061l-0.077,0.06l-0.078,0.059l-0.079,0.058l-0.08,0.057l-0.08,0.057l-0.081,0.055l-0.081,0.054l-0.083,0.054l-0.083,0.052l-0.083,0.052l-0.084,0.05l-0.085,0.05l-0.086,0.049l-0.086,0.047l-0.087,0.047l-0.088,0.045l-0.088,0.045l-0.088,0.043l-0.09,0.042l-0.09,0.042l-0.09,0.04l-0.091,0.039l-0.092,0.038l-0.092,0.037l-0.093,0.036l-0.093,0.035l-0.094,0.034l-0.094,0.032l-0.095,0.032l-0.095,0.03l-0.096,0.029l-0.096,0.028l-0.097,0.027l-0.098,0.026l-0.097,0.025l-0.099,0.023l-0.098,0.022l-0.099,0.021l-0.1,0.02l-0.1,0.018l-0.1,0.018l-0.101,0.016l-0.102,0.015l-0.101,0.013l-0.102,0.012l-0.103,0.012l-0.102,0.009l-0.104,0.009l-0.103,0.007l-0.104,0.006l-0.104,0.005l-0.105,0.003l-0.105,0.002l-0.105,0.001l-0.105,-0.001l-0.105,-0.002l-0.105,-0.003l-0.104,-0.005l-0.104,-0.006l-0.103,-0.007l-0.103,-0.009l-0.103,-0.009l-0.103,-0.012l-0.102,-0.012l-0.101,-0.013l-0.101,-0.015l-0.101,-0.016l-0.101,-0.018l-0.1,-0.018l-0.099,-0.02l-0.1,-0.021l-0.098,-0.022l-0.098,-0.023l-0.098,-0.025l-0.098,-0.026l-0.096,-0.027l-0.097,-0.028l-0.096,-0.029l-0.095,-0.03l-0.095,-0.032l-0.094,-0.032l-0.094,-0.034l-0.093,-0.035l-0.093,-0.036l-0.092,-0.037l-0.092,-0.038l-0.091,-0.039l-0.09,-0.04l-0.09,-0.042l-0.089,-0.042l-0.089,-0.043l-0.088,-0.045l-0.088,-0.045l-0.087,-0.047l-0.086,-0.047l-0.085,-0.049l-0.085,-0.05l-0.085,-0.05l-0.083,-0.052l-0.083,-0.052l-0.082,-0.054l-0.082,-0.054l-0.081,-0.055l-0.08,-0.057l-0.08,-0.057l-0.078,-0.058l-0.078,-0.059l-0.078,-0.06l-0.076,-0.061l-0.076,-0.062l-0.075,-0.063l-0.074,-0.063l-0.074,-0.065l-0.073,-0.065l-0.072,-0.066l-0.071,-0.067l-0.07,-0.068l-0.07,-0.069l-0.068,-0.069l-0.068,-0.071l-0.067,-0.071l-0.066,-0.072l-0.066,-0.072l-0.064,-0.074l-0.064,-0.074l-0.062,-0.075l-0.062,-0.076l-0.061,-0.077l-0.06,-0.077l-0.059,-0.078l-0.058,-0.079l-0.058,-0.079l-0.056,-0.08l-0.055,-0.081l-0.055,-0.082l-0.053,-0.082l-0.053,-0.083l-0.051,-0.084l-0.051,-0.084l-0.049,-0.085l-0.049,-0.086l-0.048,-0.086l-0.046,-0.087l-0.046,-0.087l-0.044,-0.088l-0.043,-0.089l-0.043,-0.089l-0.041,-0.09l-0.04,-0.091l-0.04,-0.091l-0.038,-0.091l-0.037,-0.093l-0.036,-0.092l-0.035,-0.093l-0.033,-0.094l-0.033,-0.095l-0.031,-0.094l-0.031,-0.096l-0.029,-0.096l-0.028,-0.096l-0.027,-0.097l-0.025,-0.097l-0.025,-0.098l-0.023,-0.098l-0.023,-0.099l-0.02,-0.099l-0.02,-0.1l-0.019,-0.1l-0.017,-0.1l-0.016,-0.101l-0.015,-0.101l-0.014,-0.102l-0.012,-0.102l-0.011,-0.102l-0.01,-0.103l-0.008,-0.103l-0.008,-0.104l-0.005,-0.104l-0.005,-0.104l-0.003,-0.104l-0.002,-0.105l-0.001,-0.106l0,-0.062l0.001,-0.105l0.002,-0.105l0.003,-0.105l0.005,-0.104l0.005,-0.104l0.008,-0.103l0.008,-0.104l0.01,-0.102l0.011,-0.103l0.012,-0.102l0.014,-0.101l0.015,-0.102l0.016,-0.101l0.017,-0.1l0.019,-0.1l0.02,-0.1l0.02,-0.099l0.023,-0.098l0.023,-0.099l0.025,-0.097l0.025,-0.098l0.027,-0.097l0.028,-0.096l0.029,-0.096l0.031,-0.095l0.031,-0.095l0.033,-0.094l0.033,-0.094l0.035,-0.093l0.036,-0.093l0.037,-0.092l0.038,-0.092l0.04,-0.091l0.04,-0.09l0.041,-0.09l0.043,-0.09l0.043,-0.088l0.044,-0.088l0.046,-0.088l0.046,-0.087l0.048,-0.086l0.049,-0.086l0.049,-0.085l0.051,-0.084l0.051,-0.083l0.053,-0.083l0.053,-0.083l0.055,-0.081l0.055,-0.081l0.056,-0.08l0.058,-0.08l0.058,-0.079l0.059,-0.078l0.06,-0.077l0.061,-0.077l0.062,-0.075l0.062,-0.075l0.064,-0.075l0.064,-0.073l0.066,-0.073l0.066,-0.072l0.067,-0.071l0.068,-0.07l0.068,-0.07l0.07,-0.069l0.07,-0.067l0.071,-0.067l0.072,-0.067l0.073,-0.065l0.074,-0.064l0.074,-0.064l0.075,-0.063l0.076,-0.061l0.076,-0.061l0.078,-0.06l0.078,-0.059l0.078,-0.059l0.08,-0.057l0.08,-0.056l0.081,-0.056l0.082,-0.054l0.082,-0.054l0.083,-0.052l0.083,-0.052l0.085,-0.05l0.085,-0.05l0.085,-0.048l0.086,-0.048l0.087,-0.046l0.088,-0.046l0.088,-0.044l0.089,-0.044l0.089,-0.042l0.09,-0.041l0.09,-0.041l0.091,-0.039l0.092,-0.038l0.092,-0.037l0.093,-0.036l0.093,-0.035l0.094,-0.034l0.094,-0.032l0.095,-0.032l0.095,-0.03l0.096,-0.029l0.097,-0.028l0.096,-0.027l0.098,-0.026l0.098,-0.024l0.098,-0.024l0.098,-0.022l0.1,-0.021l0.099,-0.019l0.1,-0.019l0.101,-0.017l0.101,-0.016l0.101,-0.015l0.101,-0.014l0.102,-0.012l0.103,-0.011l0.103,-0.01l0.103,-0.009l0.103,-0.007l0.104,-0.006l0.104,-0.004l0.105,-0.004l0.105,-0.002l0.105,0l0.105,0Zm-0.172,2.974l-0.067,0.001l-0.068,0.003l-0.066,0.003l-0.066,0.003l-0.066,0.005l-0.066,0.005l-0.065,0.007l-0.065,0.007l-0.065,0.007l-0.064,0.009l-0.065,0.01l-0.064,0.01l-0.063,0.011l-0.063,0.011l-0.063,0.013l-0.063,0.013l-0.063,0.014l-0.062,0.015l-0.062,0.015l-0.061,0.017l-0.061,0.017l-0.061,0.017l-0.061,0.019l-0.06,0.019l-0.06,0.02l-0.059,0.02l-0.06,0.022l-0.059,0.022l-0.058,0.022l-0.058,0.024l-0.058,0.024l-0.058,0.025l-0.057,0.025l-0.057,0.026l-0.057,0.027l-0.056,0.028l-0.056,0.028l-0.055,0.029l-0.055,0.029l-0.055,0.03l-0.054,0.031l-0.054,0.032l-0.054,0.032l-0.053,0.033l-0.053,0.033l-0.052,0.034l-0.052,0.034l-0.051,0.036l-0.051,0.036l-0.051,0.036l-0.05,0.037l-0.05,0.038l-0.049,0.038l-0.049,0.039l-0.048,0.039l-0.048,0.04l-0.047,0.041l-0.047,0.041l-0.046,0.041l-0.046,0.042l-0.045,0.043l-0.045,0.043l-0.044,0.044l-0.044,0.045l-0.044,0.044l-0.042,0.046l-0.043,0.046l-0.041,0.046l-0.041,0.047l-0.041,0.047l-0.04,0.048l-0.039,0.048l-0.039,0.049l-0.038,0.049l-0.038,0.05l-0.037,0.05l-0.036,0.051l-0.036,0.051l-0.035,0.051l-0.035,0.052l-0.034,0.052l-0.033,0.053l-0.033,0.053l-0.032,0.054l-0.031,0.053l-0.031,0.055l-0.031,0.055l-0.029,0.055l-0.029,0.055l-0.028,0.056l-0.027,0.056l-0.027,0.057l-0.027,0.056l-0.025,0.058l-0.025,0.057l-0.024,0.058l-0.023,0.059l-0.023,0.058l-0.022,0.059l-0.021,0.059l-0.021,0.06l-0.02,0.06l-0.019,0.06l-0.018,0.061l-0.018,0.06l-0.017,0.062l-0.016,0.061l-0.016,0.062l-0.015,0.062l-0.014,0.062l-0.013,0.063l-0.012,0.063l-0.012,0.064l-0.011,0.063l-0.01,0.064l-0.01,0.064l-0.008,0.064l-0.008,0.065l-0.007,0.066l-0.006,0.065l-0.006,0.065l-0.004,0.066l-0.004,0.067l-0.003,0.066l-0.002,0.067l-0.002,0.068l0,0.077l0,0.043l0,0.077l0.002,0.067l0.002,0.067l0.003,0.066l0.004,0.067l0.004,0.066l0.006,0.065l0.006,0.066l0.007,0.065l0.008,0.065l0.008,0.064l0.01,0.064l0.01,0.064l0.011,0.064l0.012,0.063l0.012,0.063l0.013,0.063l0.014,0.062l0.015,0.062l0.016,0.062l0.016,0.062l0.017,0.061l0.018,0.061l0.018,0.06l0.019,0.06l0.02,0.06l0.021,0.06l0.021,0.059l0.022,0.059l0.023,0.059l0.023,0.058l0.024,0.058l0.025,0.058l0.025,0.057l0.027,0.057l0.027,0.056l0.027,0.056l0.028,0.056l0.029,0.056l0.029,0.055l0.031,0.055l0.031,0.054l0.031,0.054l0.032,0.053l0.033,0.053l0.033,0.053l0.034,0.053l0.035,0.051l0.035,0.052l0.036,0.051l0.036,0.051l0.037,0.049l0.038,0.05l0.038,0.049l0.039,0.049l0.04,0.049l0.039,0.047l0.041,0.047l0.041,0.047l0.041,0.047l0.043,0.046l0.042,0.045l0.044,0.045l0.044,0.044l0.044,0.044l0.045,0.043l0.045,0.043l0.046,0.042l0.046,0.042l0.047,0.041l0.047,0.04l0.048,0.04l0.048,0.04l0.049,0.038l0.049,0.039l0.05,0.037l0.05,0.037l0.051,0.037l0.051,0.036l0.052,0.035l0.051,0.034l0.052,0.034l0.053,0.034l0.053,0.033l0.054,0.032l0.054,0.031l0.054,0.031l0.055,0.03l0.055,0.03l0.055,0.028l0.056,0.029l0.056,0.027l0.057,0.027l0.057,0.026l0.057,0.025l0.058,0.025l0.058,0.024l0.058,0.024l0.058,0.023l0.059,0.022l0.06,0.021l0.059,0.02l0.06,0.02l0.06,0.02l0.061,0.018l0.061,0.018l0.061,0.017l0.061,0.016l0.062,0.015l0.062,0.015l0.063,0.014l0.063,0.013l0.063,0.013l0.063,0.012l0.063,0.011l0.064,0.01l0.064,0.009l0.065,0.009l0.065,0.008l0.065,0.007l0.065,0.006l0.066,0.005l0.066,0.005l0.066,0.004l0.067,0.003l0.067,0.002l0.067,0.001l0.067,0.001l0.068,-0.001l0.067,-0.001l0.067,-0.002l0.066,-0.003l0.067,-0.004l0.065,-0.005l0.066,-0.005l0.065,-0.006l0.066,-0.007l0.064,-0.008l0.065,-0.009l0.064,-0.009l0.064,-0.01l0.063,-0.011l0.064,-0.012l0.063,-0.013l0.062,-0.013l0.063,-0.014l0.062,-0.015l0.062,-0.015l0.061,-0.016l0.061,-0.017l0.061,-0.018l0.061,-0.018l0.06,-0.02l0.06,-0.02l0.059,-0.02l0.06,-0.021l0.059,-0.022l0.058,-0.023l0.059,-0.024l0.058,-0.024l0.057,-0.025l0.057,-0.025l0.057,-0.026l0.057,-0.027l0.056,-0.027l0.056,-0.029l0.055,-0.028l0.056,-0.03l0.054,-0.03l0.055,-0.031l0.053,-0.031l0.054,-0.032l0.053,-0.033l0.053,-0.034l0.052,-0.034l0.052,-0.034l0.051,-0.035l0.051,-0.036l0.051,-0.037l0.05,-0.037l0.05,-0.037l0.049,-0.039l0.049,-0.038l0.048,-0.04l0.048,-0.04l0.047,-0.04l0.047,-0.041l0.046,-0.042l0.046,-0.042l0.046,-0.043l0.045,-0.043l0.044,-0.044l0.043,-0.044l0.044,-0.045l0.042,-0.045l0.043,-0.046l0.042,-0.047l0.041,-0.047l0.04,-0.047l0.04,-0.048l0.039,-0.048l0.039,-0.048l0.038,-0.05l0.038,-0.05l0.037,-0.05l0.036,-0.05l0.036,-0.051l0.035,-0.052l0.035,-0.051l0.034,-0.053l0.033,-0.053l0.033,-0.053l0.032,-0.053l0.032,-0.054l0.031,-0.055l0.03,-0.054l0.029,-0.055l0.029,-0.056l0.028,-0.056l0.028,-0.056l0.027,-0.056l0.026,-0.057l0.025,-0.057l0.025,-0.058l0.024,-0.058l0.023,-0.058l0.023,-0.059l0.022,-0.059l0.022,-0.059l0.02,-0.06l0.02,-0.06l0.019,-0.06l0.019,-0.06l0.017,-0.061l0.017,-0.061l0.017,-0.062l0.015,-0.062l0.015,-0.062l0.014,-0.062l0.013,-0.063l0.013,-0.063l0.011,-0.064l0.011,-0.063l0.01,-0.064l0.01,-0.064l0.008,-0.064l0.008,-0.065l0.007,-0.065l0.007,-0.065l0.005,-0.066l0.005,-0.067l0.003,-0.066l0.003,-0.066l0.002,-0.067l0.002,-0.067l0,-0.077l0,-0.044l0,-0.076l-0.002,-0.068l-0.002,-0.067l-0.003,-0.066l-0.003,-0.066l-0.005,-0.067l-0.005,-0.065l-0.007,-0.065l-0.007,-0.066l-0.008,-0.065l-0.008,-0.064l-0.01,-0.064l-0.01,-0.064l-0.011,-0.063l-0.011,-0.064l-0.013,-0.063l-0.013,-0.063l-0.014,-0.062l-0.015,-0.062l-0.015,-0.062l-0.017,-0.061l-0.017,-0.062l-0.017,-0.06l-0.019,-0.061l-0.019,-0.06l-0.02,-0.06l-0.02,-0.06l-0.022,-0.059l-0.022,-0.059l-0.022,-0.058l-0.024,-0.059l-0.024,-0.058l-0.025,-0.057l-0.025,-0.058l-0.026,-0.056l-0.027,-0.057l-0.028,-0.056l-0.028,-0.056l-0.029,-0.056l-0.029,-0.055l-0.03,-0.054l-0.031,-0.055l-0.032,-0.053l-0.032,-0.054l-0.033,-0.053l-0.033,-0.053l-0.034,-0.052l-0.035,-0.052l-0.035,-0.051l-0.036,-0.051l-0.036,-0.051l-0.037,-0.05l-0.038,-0.05l-0.038,-0.049l-0.039,-0.049l-0.039,-0.048l-0.04,-0.048l-0.041,-0.047l-0.041,-0.047l-0.041,-0.046l-0.043,-0.046l-0.042,-0.046l-0.044,-0.045l-0.043,-0.044l-0.044,-0.043l-0.045,-0.044l-0.046,-0.043l-0.046,-0.042l-0.046,-0.041l-0.047,-0.041l-0.047,-0.041l-0.048,-0.04l-0.048,-0.039l-0.049,-0.039l-0.049,-0.038l-0.05,-0.038l-0.05,-0.037l-0.051,-0.037l-0.051,-0.035l-0.051,-0.035l-0.052,-0.035l-0.052,-0.034l-0.053,-0.033l-0.053,-0.033l-0.054,-0.032l-0.053,-0.032l-0.055,-0.031l-0.054,-0.03l-0.055,-0.029l-0.056,-0.029l-0.056,-0.028l-0.056,-0.028l-0.057,-0.027l-0.056,-0.026l-0.058,-0.025l-0.057,-0.025l-0.058,-0.024l-0.059,-0.024l-0.058,-0.022l-0.059,-0.022l-0.059,-0.022l-0.06,-0.02l-0.06,-0.02l-0.06,-0.019l-0.061,-0.019l-0.061,-0.017l-0.061,-0.017l-0.061,-0.017l-0.062,-0.015l-0.062,-0.015l-0.063,-0.014l-0.062,-0.013l-0.063,-0.013l-0.064,-0.011l-0.063,-0.011l-0.064,-0.01l-0.064,-0.01l-0.065,-0.009l-0.064,-0.007l-0.066,-0.007l-0.065,-0.007l-0.065,-0.005l-0.067,-0.005l-0.066,-0.003l-0.066,-0.003l-0.067,-0.003l-0.068,-0.001l-0.067,0l-0.067,0Z"/><path d="M60.743,86.127c0,-4.495 -3.649,-8.144 -8.144,-8.144c-4.495,0 -8.144,3.649 -8.144,8.144l0,0.062c0,4.495 3.649,8.145 8.144,8.145c4.495,0 8.144,-3.65 8.144,-8.145l0,-0.062Z"/><path d="M52.704,77.983l0.105,0.002l0.105,0.004l0.104,0.004l0.104,0.006l0.103,0.007l0.103,0.009l0.103,0.01l0.103,0.011l0.102,0.012l0.101,0.014l0.102,0.015l0.1,0.016l0.101,0.017l0.1,0.019l0.099,0.019l0.1,0.021l0.098,0.022l0.099,0.024l0.097,0.024l0.098,0.026l0.096,0.027l0.097,0.028l0.096,0.029l0.095,0.03l0.095,0.032l0.094,0.032l0.094,0.034l0.093,0.035l0.093,0.036l0.092,0.037l0.092,0.038l0.091,0.039l0.09,0.041l0.09,0.041l0.089,0.042l0.089,0.044l0.088,0.044l0.088,0.046l0.087,0.046l0.086,0.048l0.085,0.048l0.085,0.05l0.085,0.05l0.083,0.052l0.083,0.052l0.083,0.054l0.081,0.054l0.081,0.056l0.08,0.056l0.08,0.057l0.078,0.059l0.078,0.059l0.078,0.06l0.076,0.061l0.076,0.061l0.075,0.063l0.074,0.064l0.074,0.064l0.073,0.065l0.072,0.067l0.071,0.067l0.07,0.067l0.07,0.069l0.068,0.07l0.068,0.07l0.067,0.071l0.066,0.072l0.066,0.073l0.064,0.073l0.064,0.075l0.062,0.075l0.062,0.075l0.061,0.077l0.06,0.077l0.059,0.078l0.058,0.079l0.058,0.08l0.056,0.08l0.055,0.081l0.055,0.081l0.053,0.083l0.053,0.083l0.051,0.083l0.051,0.084l0.049,0.085l0.049,0.086l0.048,0.086l0.046,0.087l0.046,0.088l0.044,0.088l0.043,0.088l0.043,0.09l0.041,0.09l0.04,0.09l0.04,0.091l0.038,0.092l0.037,0.092l0.036,0.093l0.035,0.093l0.033,0.094l0.033,0.094l0.031,0.095l0.031,0.095l0.029,0.096l0.028,0.096l0.027,0.097l0.026,0.098l0.024,0.097l0.023,0.099l0.023,0.098l0.021,0.099l0.019,0.1l0.019,0.1l0.017,0.1l0.016,0.101l0.015,0.102l0.014,0.101l0.012,0.102l0.011,0.103l0.01,0.102l0.008,0.104l0.008,0.103l0.006,0.104l0.004,0.104l0.003,0.105l0.002,0.105l0.001,0.105l0,0.062l-0.001,0.106l-0.002,0.105l-0.003,0.104l-0.004,0.104l-0.006,0.104l-0.008,0.104l-0.008,0.103l-0.01,0.103l-0.011,0.102l-0.012,0.102l-0.014,0.102l-0.015,0.101l-0.016,0.101l-0.017,0.1l-0.019,0.1l-0.019,0.1l-0.021,0.099l-0.023,0.099l-0.023,0.098l-0.024,0.098l-0.026,0.097l-0.027,0.097l-0.028,0.096l-0.029,0.096l-0.031,0.096l-0.031,0.094l-0.033,0.095l-0.033,0.094l-0.035,0.093l-0.036,0.092l-0.037,0.093l-0.038,0.091l-0.04,0.091l-0.04,0.091l-0.041,0.09l-0.043,0.089l-0.043,0.089l-0.044,0.088l-0.046,0.087l-0.046,0.087l-0.048,0.086l-0.049,0.086l-0.049,0.085l-0.051,0.084l-0.051,0.084l-0.053,0.083l-0.053,0.082l-0.055,0.082l-0.055,0.081l-0.056,0.08l-0.058,0.079l-0.058,0.079l-0.059,0.078l-0.06,0.077l-0.061,0.077l-0.062,0.076l-0.062,0.075l-0.064,0.074l-0.064,0.074l-0.066,0.072l-0.066,0.072l-0.067,0.071l-0.068,0.071l-0.068,0.069l-0.07,0.069l-0.07,0.068l-0.071,0.067l-0.072,0.066l-0.073,0.065l-0.074,0.065l-0.074,0.063l-0.075,0.063l-0.076,0.062l-0.076,0.061l-0.078,0.06l-0.078,0.059l-0.078,0.058l-0.08,0.057l-0.08,0.057l-0.081,0.055l-0.081,0.054l-0.083,0.054l-0.083,0.052l-0.083,0.052l-0.085,0.05l-0.085,0.05l-0.085,0.049l-0.086,0.047l-0.087,0.047l-0.088,0.045l-0.088,0.045l-0.089,0.043l-0.089,0.042l-0.09,0.042l-0.09,0.04l-0.091,0.039l-0.092,0.038l-0.092,0.037l-0.093,0.036l-0.093,0.035l-0.094,0.034l-0.094,0.032l-0.095,0.032l-0.095,0.03l-0.096,0.029l-0.097,0.028l-0.096,0.027l-0.098,0.026l-0.097,0.025l-0.099,0.023l-0.098,0.022l-0.1,0.021l-0.099,0.02l-0.1,0.018l-0.101,0.018l-0.1,0.016l-0.102,0.015l-0.101,0.013l-0.102,0.012l-0.103,0.012l-0.103,0.009l-0.103,0.009l-0.103,0.007l-0.104,0.006l-0.104,0.005l-0.105,0.003l-0.105,0.002l-0.105,0.001l-0.105,-0.001l-0.105,-0.002l-0.105,-0.003l-0.104,-0.005l-0.104,-0.006l-0.103,-0.007l-0.103,-0.009l-0.103,-0.009l-0.103,-0.012l-0.102,-0.012l-0.101,-0.013l-0.102,-0.015l-0.101,-0.016l-0.1,-0.018l-0.1,-0.018l-0.1,-0.02l-0.099,-0.021l-0.098,-0.022l-0.099,-0.023l-0.097,-0.025l-0.098,-0.026l-0.097,-0.027l-0.096,-0.028l-0.096,-0.029l-0.095,-0.03l-0.095,-0.032l-0.094,-0.032l-0.094,-0.034l-0.093,-0.035l-0.093,-0.036l-0.092,-0.037l-0.092,-0.038l-0.091,-0.039l-0.09,-0.04l-0.09,-0.042l-0.09,-0.042l-0.088,-0.043l-0.088,-0.045l-0.088,-0.045l-0.087,-0.047l-0.086,-0.047l-0.086,-0.049l-0.084,-0.05l-0.085,-0.05l-0.083,-0.052l-0.083,-0.052l-0.083,-0.054l-0.081,-0.054l-0.081,-0.055l-0.08,-0.057l-0.08,-0.057l-0.079,-0.058l-0.078,-0.059l-0.077,-0.06l-0.076,-0.061l-0.076,-0.062l-0.075,-0.063l-0.075,-0.063l-0.073,-0.065l-0.073,-0.065l-0.072,-0.066l-0.071,-0.067l-0.07,-0.068l-0.07,-0.069l-0.068,-0.069l-0.068,-0.071l-0.067,-0.071l-0.066,-0.072l-0.066,-0.072l-0.064,-0.074l-0.064,-0.074l-0.063,-0.075l-0.061,-0.076l-0.061,-0.077l-0.06,-0.077l-0.059,-0.078l-0.059,-0.079l-0.057,-0.079l-0.056,-0.08l-0.056,-0.081l-0.054,-0.082l-0.053,-0.082l-0.053,-0.083l-0.051,-0.084l-0.051,-0.084l-0.05,-0.085l-0.048,-0.086l-0.048,-0.086l-0.046,-0.087l-0.046,-0.087l-0.044,-0.088l-0.044,-0.089l-0.042,-0.089l-0.041,-0.09l-0.041,-0.091l-0.039,-0.091l-0.038,-0.091l-0.037,-0.093l-0.036,-0.092l-0.035,-0.093l-0.033,-0.094l-0.033,-0.095l-0.032,-0.094l-0.03,-0.096l-0.029,-0.096l-0.028,-0.096l-0.027,-0.097l-0.026,-0.097l-0.024,-0.098l-0.024,-0.098l-0.022,-0.099l-0.021,-0.099l-0.019,-0.1l-0.019,-0.1l-0.017,-0.1l-0.016,-0.101l-0.015,-0.101l-0.014,-0.102l-0.012,-0.102l-0.011,-0.102l-0.01,-0.103l-0.008,-0.103l-0.008,-0.104l-0.006,-0.104l-0.004,-0.104l-0.004,-0.104l-0.002,-0.105l0,-0.106l0,-0.062l0,-0.105l0.002,-0.105l0.004,-0.105l0.004,-0.104l0.006,-0.104l0.008,-0.103l0.008,-0.104l0.01,-0.102l0.011,-0.103l0.012,-0.102l0.014,-0.101l0.015,-0.102l0.016,-0.101l0.017,-0.1l0.019,-0.1l0.019,-0.1l0.021,-0.099l0.022,-0.098l0.024,-0.099l0.024,-0.097l0.026,-0.098l0.027,-0.097l0.028,-0.096l0.029,-0.096l0.03,-0.095l0.032,-0.095l0.033,-0.094l0.033,-0.094l0.035,-0.093l0.036,-0.093l0.037,-0.092l0.038,-0.092l0.039,-0.091l0.041,-0.09l0.041,-0.09l0.042,-0.09l0.044,-0.088l0.044,-0.088l0.046,-0.088l0.046,-0.087l0.048,-0.086l0.048,-0.086l0.05,-0.085l0.051,-0.084l0.051,-0.083l0.053,-0.083l0.053,-0.083l0.054,-0.081l0.056,-0.081l0.056,-0.08l0.057,-0.08l0.059,-0.079l0.059,-0.078l0.06,-0.077l0.061,-0.077l0.061,-0.075l0.063,-0.075l0.064,-0.075l0.064,-0.073l0.066,-0.073l0.066,-0.072l0.067,-0.071l0.068,-0.07l0.068,-0.07l0.07,-0.069l0.07,-0.067l0.071,-0.067l0.072,-0.067l0.073,-0.065l0.073,-0.064l0.075,-0.064l0.075,-0.063l0.076,-0.061l0.076,-0.061l0.077,-0.06l0.078,-0.059l0.079,-0.059l0.08,-0.057l0.08,-0.056l0.081,-0.056l0.081,-0.054l0.083,-0.054l0.083,-0.052l0.083,-0.052l0.085,-0.05l0.084,-0.05l0.086,-0.048l0.086,-0.048l0.087,-0.046l0.088,-0.046l0.088,-0.044l0.088,-0.044l0.09,-0.042l0.09,-0.041l0.09,-0.041l0.091,-0.039l0.092,-0.038l0.092,-0.037l0.093,-0.036l0.093,-0.035l0.094,-0.034l0.094,-0.032l0.095,-0.032l0.095,-0.03l0.096,-0.029l0.096,-0.028l0.097,-0.027l0.098,-0.026l0.097,-0.024l0.099,-0.024l0.098,-0.022l0.099,-0.021l0.1,-0.019l0.1,-0.019l0.1,-0.017l0.101,-0.016l0.102,-0.015l0.101,-0.014l0.102,-0.012l0.103,-0.011l0.103,-0.01l0.103,-0.009l0.103,-0.007l0.104,-0.006l0.104,-0.004l0.105,-0.004l0.105,-0.002l0.105,0l0.105,0Zm-0.172,2.974l-0.068,0.001l-0.067,0.003l-0.066,0.003l-0.066,0.003l-0.066,0.005l-0.066,0.005l-0.065,0.007l-0.065,0.007l-0.065,0.007l-0.065,0.009l-0.064,0.01l-0.064,0.01l-0.063,0.011l-0.064,0.011l-0.063,0.013l-0.062,0.013l-0.063,0.014l-0.062,0.015l-0.062,0.015l-0.061,0.017l-0.061,0.017l-0.061,0.017l-0.061,0.019l-0.06,0.019l-0.06,0.02l-0.06,0.02l-0.059,0.022l-0.059,0.022l-0.058,0.022l-0.059,0.024l-0.058,0.024l-0.057,0.025l-0.058,0.025l-0.056,0.026l-0.057,0.027l-0.056,0.028l-0.056,0.028l-0.056,0.029l-0.055,0.029l-0.054,0.03l-0.054,0.031l-0.054,0.032l-0.054,0.032l-0.053,0.033l-0.053,0.033l-0.052,0.034l-0.052,0.035l-0.051,0.035l-0.051,0.036l-0.051,0.036l-0.05,0.037l-0.05,0.038l-0.049,0.038l-0.049,0.039l-0.048,0.039l-0.048,0.04l-0.047,0.041l-0.047,0.041l-0.046,0.041l-0.046,0.042l-0.046,0.043l-0.045,0.044l-0.044,0.043l-0.044,0.045l-0.043,0.044l-0.042,0.046l-0.043,0.046l-0.041,0.046l-0.041,0.047l-0.041,0.047l-0.04,0.048l-0.039,0.048l-0.039,0.049l-0.038,0.049l-0.038,0.05l-0.037,0.05l-0.036,0.051l-0.036,0.051l-0.035,0.051l-0.035,0.052l-0.034,0.052l-0.033,0.053l-0.033,0.053l-0.032,0.054l-0.032,0.053l-0.03,0.055l-0.031,0.054l-0.029,0.055l-0.029,0.056l-0.028,0.056l-0.028,0.056l-0.026,0.057l-0.027,0.056l-0.025,0.058l-0.025,0.058l-0.024,0.057l-0.023,0.058l-0.023,0.059l-0.022,0.059l-0.021,0.059l-0.021,0.06l-0.02,0.06l-0.019,0.06l-0.019,0.061l-0.017,0.061l-0.017,0.061l-0.016,0.061l-0.016,0.062l-0.015,0.062l-0.014,0.063l-0.013,0.062l-0.013,0.063l-0.011,0.064l-0.011,0.063l-0.01,0.064l-0.01,0.064l-0.008,0.065l-0.008,0.064l-0.007,0.065l-0.007,0.066l-0.005,0.066l-0.005,0.065l-0.003,0.067l-0.003,0.066l-0.002,0.067l-0.002,0.067l0,0.077l0,0.044l0,0.077l0.002,0.067l0.002,0.067l0.003,0.067l0.003,0.066l0.005,0.066l0.005,0.065l0.007,0.066l0.007,0.065l0.008,0.065l0.008,0.064l0.01,0.064l0.01,0.064l0.011,0.064l0.011,0.063l0.013,0.063l0.013,0.063l0.014,0.062l0.015,0.062l0.016,0.062l0.016,0.062l0.017,0.061l0.017,0.061l0.019,0.06l0.019,0.06l0.02,0.06l0.021,0.06l0.021,0.059l0.022,0.059l0.023,0.059l0.023,0.058l0.024,0.058l0.025,0.057l0.025,0.058l0.027,0.057l0.026,0.056l0.028,0.056l0.028,0.056l0.029,0.056l0.029,0.055l0.031,0.055l0.03,0.054l0.032,0.054l0.032,0.053l0.033,0.053l0.033,0.053l0.034,0.052l0.035,0.052l0.035,0.052l0.036,0.051l0.036,0.05l0.037,0.05l0.038,0.05l0.038,0.049l0.039,0.049l0.039,0.048l0.04,0.048l0.041,0.048l0.041,0.046l0.041,0.047l0.043,0.046l0.042,0.045l0.043,0.045l0.044,0.044l0.044,0.044l0.045,0.043l0.046,0.043l0.046,0.042l0.046,0.042l0.047,0.041l0.047,0.04l0.048,0.04l0.048,0.04l0.049,0.038l0.049,0.039l0.05,0.037l0.05,0.037l0.051,0.037l0.051,0.036l0.051,0.035l0.052,0.034l0.052,0.034l0.053,0.034l0.053,0.032l0.054,0.033l0.054,0.031l0.054,0.031l0.054,0.03l0.056,0.03l0.055,0.028l0.056,0.029l0.056,0.027l0.057,0.027l0.057,0.026l0.057,0.025l0.057,0.025l0.058,0.025l0.059,0.023l0.058,0.023l0.059,0.022l0.06,0.021l0.059,0.02l0.06,0.02l0.06,0.02l0.061,0.018l0.061,0.018l0.061,0.017l0.061,0.016l0.062,0.015l0.062,0.015l0.063,0.014l0.062,0.013l0.063,0.013l0.064,0.012l0.063,0.011l0.064,0.01l0.064,0.009l0.065,0.009l0.065,0.008l0.065,0.007l0.065,0.006l0.066,0.005l0.066,0.005l0.066,0.004l0.066,0.003l0.067,0.002l0.067,0.001l0.068,0.001l0.067,-0.001l0.068,-0.001l0.066,-0.002l0.067,-0.003l0.066,-0.004l0.066,-0.005l0.066,-0.005l0.065,-0.006l0.065,-0.007l0.065,-0.008l0.065,-0.009l0.064,-0.009l0.064,-0.01l0.063,-0.011l0.064,-0.012l0.063,-0.013l0.062,-0.013l0.063,-0.014l0.062,-0.015l0.062,-0.015l0.061,-0.016l0.061,-0.017l0.061,-0.018l0.061,-0.018l0.06,-0.02l0.06,-0.02l0.059,-0.02l0.06,-0.021l0.059,-0.022l0.058,-0.023l0.058,-0.023l0.059,-0.025l0.057,-0.025l0.057,-0.025l0.057,-0.026l0.057,-0.027l0.056,-0.027l0.056,-0.029l0.055,-0.028l0.055,-0.03l0.055,-0.03l0.054,-0.031l0.054,-0.031l0.054,-0.033l0.053,-0.032l0.053,-0.034l0.052,-0.034l0.052,-0.034l0.051,-0.035l0.051,-0.036l0.051,-0.037l0.05,-0.037l0.05,-0.037l0.049,-0.039l0.049,-0.038l0.048,-0.04l0.048,-0.04l0.047,-0.04l0.047,-0.041l0.046,-0.042l0.046,-0.042l0.045,-0.043l0.045,-0.043l0.045,-0.044l0.043,-0.044l0.044,-0.045l0.042,-0.045l0.043,-0.046l0.041,-0.047l0.041,-0.046l0.041,-0.048l0.04,-0.048l0.039,-0.048l0.039,-0.049l0.038,-0.049l0.038,-0.05l0.037,-0.05l0.036,-0.05l0.036,-0.051l0.035,-0.052l0.035,-0.052l0.034,-0.052l0.033,-0.053l0.033,-0.053l0.032,-0.053l0.032,-0.054l0.03,-0.054l0.03,-0.055l0.03,-0.055l0.029,-0.056l0.028,-0.056l0.028,-0.056l0.026,-0.056l0.026,-0.057l0.026,-0.058l0.025,-0.057l0.024,-0.058l0.023,-0.058l0.023,-0.059l0.022,-0.059l0.021,-0.059l0.021,-0.059l0.02,-0.061l0.019,-0.06l0.018,-0.06l0.018,-0.061l0.017,-0.061l0.016,-0.062l0.016,-0.062l0.015,-0.062l0.014,-0.062l0.013,-0.063l0.012,-0.063l0.012,-0.063l0.011,-0.064l0.01,-0.064l0.01,-0.064l0.008,-0.064l0.008,-0.065l0.007,-0.065l0.006,-0.066l0.006,-0.065l0.004,-0.066l0.004,-0.066l0.003,-0.067l0.002,-0.067l0.002,-0.067l0,-0.077l0,-0.044l0,-0.077l-0.002,-0.067l-0.002,-0.067l-0.003,-0.066l-0.004,-0.067l-0.004,-0.066l-0.006,-0.065l-0.006,-0.065l-0.007,-0.066l-0.008,-0.064l-0.008,-0.065l-0.01,-0.064l-0.01,-0.064l-0.011,-0.063l-0.012,-0.064l-0.012,-0.063l-0.013,-0.062l-0.014,-0.063l-0.015,-0.062l-0.016,-0.062l-0.016,-0.061l-0.017,-0.061l-0.018,-0.061l-0.018,-0.061l-0.019,-0.06l-0.02,-0.06l-0.021,-0.06l-0.021,-0.059l-0.022,-0.059l-0.023,-0.059l-0.023,-0.058l-0.024,-0.057l-0.025,-0.058l-0.026,-0.058l-0.026,-0.056l-0.026,-0.057l-0.028,-0.056l-0.028,-0.056l-0.029,-0.056l-0.03,-0.055l-0.03,-0.054l-0.031,-0.055l-0.031,-0.053l-0.032,-0.054l-0.033,-0.053l-0.033,-0.053l-0.034,-0.052l-0.035,-0.052l-0.035,-0.051l-0.036,-0.051l-0.036,-0.051l-0.037,-0.05l-0.038,-0.05l-0.038,-0.049l-0.039,-0.049l-0.039,-0.048l-0.04,-0.048l-0.041,-0.047l-0.041,-0.047l-0.041,-0.046l-0.043,-0.046l-0.042,-0.046l-0.044,-0.044l-0.043,-0.045l-0.045,-0.043l-0.045,-0.044l-0.045,-0.043l-0.046,-0.042l-0.046,-0.041l-0.047,-0.041l-0.047,-0.041l-0.048,-0.04l-0.048,-0.039l-0.049,-0.039l-0.049,-0.038l-0.05,-0.038l-0.05,-0.037l-0.051,-0.036l-0.051,-0.036l-0.051,-0.035l-0.052,-0.035l-0.052,-0.034l-0.053,-0.033l-0.053,-0.033l-0.054,-0.032l-0.054,-0.032l-0.054,-0.031l-0.055,-0.03l-0.055,-0.029l-0.055,-0.029l-0.056,-0.028l-0.056,-0.028l-0.057,-0.027l-0.056,-0.026l-0.058,-0.025l-0.058,-0.025l-0.058,-0.024l-0.058,-0.024l-0.058,-0.022l-0.059,-0.022l-0.059,-0.022l-0.06,-0.02l-0.06,-0.02l-0.06,-0.019l-0.061,-0.019l-0.061,-0.017l-0.061,-0.017l-0.061,-0.017l-0.062,-0.015l-0.062,-0.015l-0.063,-0.014l-0.062,-0.013l-0.063,-0.013l-0.064,-0.011l-0.063,-0.011l-0.064,-0.01l-0.064,-0.01l-0.065,-0.009l-0.065,-0.007l-0.065,-0.007l-0.065,-0.007l-0.066,-0.005l-0.066,-0.005l-0.066,-0.003l-0.066,-0.003l-0.067,-0.003l-0.068,-0.001l-0.067,0l-0.067,0Z"/><path d="M83.545,86.127c0,-4.495 -3.649,-8.144 -8.144,-8.144c-4.495,0 -8.144,3.649 -8.144,8.144l0,0.062c0,4.495 3.649,8.145 8.144,8.145c4.495,0 8.144,-3.65 8.144,-8.145l0,-0.062Z"/><path d="M75.506,77.983l0.105,0.002l0.105,0.004l0.104,0.004l0.104,0.006l0.103,0.007l0.103,0.009l0.103,0.01l0.103,0.011l0.102,0.012l0.101,0.014l0.102,0.015l0.101,0.016l0.1,0.017l0.1,0.019l0.1,0.019l0.099,0.021l0.098,0.022l0.099,0.024l0.097,0.024l0.098,0.026l0.097,0.027l0.096,0.028l0.096,0.029l0.095,0.03l0.095,0.032l0.094,0.032l0.094,0.034l0.093,0.035l0.093,0.036l0.092,0.037l0.092,0.038l0.091,0.039l0.09,0.041l0.09,0.041l0.09,0.042l0.088,0.044l0.088,0.044l0.088,0.046l0.087,0.046l0.086,0.048l0.086,0.048l0.084,0.05l0.085,0.05l0.083,0.052l0.083,0.052l0.083,0.054l0.081,0.054l0.081,0.056l0.08,0.056l0.08,0.057l0.079,0.059l0.078,0.059l0.077,0.06l0.076,0.061l0.076,0.061l0.075,0.063l0.075,0.064l0.073,0.064l0.073,0.065l0.072,0.067l0.071,0.067l0.07,0.067l0.07,0.069l0.068,0.07l0.068,0.07l0.067,0.071l0.066,0.072l0.066,0.073l0.064,0.073l0.064,0.075l0.063,0.075l0.061,0.075l0.061,0.077l0.06,0.077l0.059,0.078l0.059,0.079l0.057,0.08l0.056,0.08l0.056,0.081l0.054,0.081l0.053,0.083l0.053,0.083l0.051,0.083l0.051,0.084l0.05,0.085l0.048,0.086l0.048,0.086l0.046,0.087l0.046,0.088l0.044,0.088l0.044,0.088l0.042,0.09l0.041,0.09l0.041,0.09l0.039,0.091l0.038,0.092l0.037,0.092l0.036,0.093l0.035,0.093l0.033,0.094l0.033,0.094l0.032,0.095l0.03,0.095l0.029,0.096l0.028,0.096l0.027,0.097l0.026,0.098l0.024,0.097l0.024,0.099l0.022,0.098l0.021,0.099l0.019,0.1l0.019,0.1l0.017,0.1l0.016,0.101l0.015,0.102l0.014,0.101l0.012,0.102l0.011,0.103l0.01,0.102l0.008,0.104l0.008,0.103l0.006,0.104l0.004,0.104l0.004,0.105l0.002,0.105l0,0.105l0,0.062l0,0.106l-0.002,0.105l-0.004,0.104l-0.004,0.104l-0.006,0.104l-0.008,0.104l-0.008,0.103l-0.01,0.103l-0.011,0.102l-0.012,0.102l-0.014,0.102l-0.015,0.101l-0.016,0.101l-0.017,0.1l-0.019,0.1l-0.019,0.1l-0.021,0.099l-0.022,0.099l-0.024,0.098l-0.024,0.098l-0.026,0.097l-0.027,0.097l-0.028,0.096l-0.029,0.096l-0.03,0.096l-0.032,0.094l-0.033,0.095l-0.033,0.094l-0.035,0.093l-0.036,0.092l-0.037,0.093l-0.038,0.091l-0.039,0.091l-0.041,0.091l-0.041,0.09l-0.042,0.089l-0.044,0.089l-0.044,0.088l-0.046,0.087l-0.046,0.087l-0.048,0.086l-0.048,0.086l-0.05,0.085l-0.051,0.084l-0.051,0.084l-0.053,0.083l-0.053,0.082l-0.054,0.082l-0.056,0.081l-0.056,0.08l-0.057,0.079l-0.059,0.079l-0.059,0.078l-0.06,0.077l-0.061,0.077l-0.061,0.076l-0.063,0.075l-0.064,0.074l-0.064,0.074l-0.066,0.072l-0.066,0.072l-0.067,0.071l-0.068,0.071l-0.068,0.069l-0.07,0.069l-0.07,0.068l-0.071,0.067l-0.072,0.066l-0.073,0.065l-0.073,0.065l-0.075,0.063l-0.075,0.063l-0.076,0.062l-0.076,0.061l-0.077,0.06l-0.078,0.059l-0.079,0.058l-0.08,0.057l-0.08,0.057l-0.081,0.055l-0.081,0.054l-0.083,0.054l-0.083,0.052l-0.083,0.052l-0.085,0.05l-0.084,0.05l-0.086,0.049l-0.086,0.047l-0.087,0.047l-0.088,0.045l-0.088,0.045l-0.088,0.043l-0.09,0.042l-0.09,0.042l-0.09,0.04l-0.091,0.039l-0.092,0.038l-0.092,0.037l-0.093,0.036l-0.093,0.035l-0.094,0.034l-0.094,0.032l-0.095,0.032l-0.095,0.03l-0.096,0.029l-0.096,0.028l-0.097,0.027l-0.098,0.026l-0.097,0.025l-0.099,0.023l-0.098,0.022l-0.099,0.021l-0.1,0.02l-0.1,0.018l-0.1,0.018l-0.101,0.016l-0.102,0.015l-0.101,0.013l-0.102,0.012l-0.103,0.012l-0.103,0.009l-0.103,0.009l-0.103,0.007l-0.104,0.006l-0.104,0.005l-0.105,0.003l-0.105,0.002l-0.105,0.001l-0.105,-0.001l-0.105,-0.002l-0.105,-0.003l-0.104,-0.005l-0.104,-0.006l-0.103,-0.007l-0.103,-0.009l-0.103,-0.009l-0.103,-0.012l-0.102,-0.012l-0.101,-0.013l-0.102,-0.015l-0.1,-0.016l-0.101,-0.018l-0.1,-0.018l-0.099,-0.02l-0.1,-0.021l-0.098,-0.022l-0.099,-0.023l-0.097,-0.025l-0.098,-0.026l-0.096,-0.027l-0.097,-0.028l-0.096,-0.029l-0.095,-0.03l-0.095,-0.032l-0.094,-0.032l-0.094,-0.034l-0.093,-0.035l-0.093,-0.036l-0.092,-0.037l-0.092,-0.038l-0.091,-0.039l-0.09,-0.04l-0.09,-0.042l-0.089,-0.042l-0.089,-0.043l-0.088,-0.045l-0.088,-0.045l-0.087,-0.047l-0.086,-0.047l-0.085,-0.049l-0.085,-0.05l-0.085,-0.05l-0.083,-0.052l-0.083,-0.052l-0.083,-0.054l-0.081,-0.054l-0.081,-0.055l-0.08,-0.057l-0.08,-0.057l-0.078,-0.058l-0.078,-0.059l-0.078,-0.06l-0.076,-0.061l-0.076,-0.062l-0.075,-0.063l-0.074,-0.063l-0.074,-0.065l-0.073,-0.065l-0.072,-0.066l-0.071,-0.067l-0.07,-0.068l-0.07,-0.069l-0.068,-0.069l-0.068,-0.071l-0.067,-0.071l-0.066,-0.072l-0.066,-0.072l-0.064,-0.074l-0.064,-0.074l-0.062,-0.075l-0.062,-0.076l-0.061,-0.077l-0.06,-0.077l-0.059,-0.078l-0.058,-0.079l-0.058,-0.079l-0.056,-0.08l-0.055,-0.081l-0.055,-0.082l-0.053,-0.082l-0.053,-0.083l-0.051,-0.084l-0.051,-0.084l-0.049,-0.085l-0.049,-0.086l-0.048,-0.086l-0.046,-0.087l-0.046,-0.087l-0.044,-0.088l-0.043,-0.089l-0.043,-0.089l-0.041,-0.09l-0.04,-0.091l-0.04,-0.091l-0.038,-0.091l-0.037,-0.093l-0.036,-0.092l-0.035,-0.093l-0.033,-0.094l-0.033,-0.095l-0.031,-0.094l-0.031,-0.096l-0.029,-0.096l-0.028,-0.096l-0.027,-0.097l-0.026,-0.097l-0.024,-0.098l-0.023,-0.098l-0.023,-0.099l-0.021,-0.099l-0.019,-0.1l-0.019,-0.1l-0.017,-0.1l-0.016,-0.101l-0.015,-0.101l-0.014,-0.102l-0.012,-0.102l-0.011,-0.102l-0.01,-0.103l-0.008,-0.103l-0.008,-0.104l-0.006,-0.104l-0.004,-0.104l-0.003,-0.104l-0.002,-0.105l-0.001,-0.106l0,-0.062l0.001,-0.105l0.002,-0.105l0.003,-0.105l0.004,-0.104l0.006,-0.104l0.008,-0.103l0.008,-0.104l0.01,-0.102l0.011,-0.103l0.012,-0.102l0.014,-0.101l0.015,-0.102l0.016,-0.101l0.017,-0.1l0.019,-0.1l0.019,-0.1l0.021,-0.099l0.023,-0.098l0.023,-0.099l0.024,-0.097l0.026,-0.098l0.027,-0.097l0.028,-0.096l0.029,-0.096l0.031,-0.095l0.031,-0.095l0.033,-0.094l0.033,-0.094l0.035,-0.093l0.036,-0.093l0.037,-0.092l0.038,-0.092l0.04,-0.091l0.04,-0.09l0.041,-0.09l0.043,-0.09l0.043,-0.088l0.044,-0.088l0.046,-0.088l0.046,-0.087l0.048,-0.086l0.049,-0.086l0.049,-0.085l0.051,-0.084l0.051,-0.083l0.053,-0.083l0.053,-0.083l0.055,-0.081l0.055,-0.081l0.056,-0.08l0.058,-0.08l0.058,-0.079l0.059,-0.078l0.06,-0.077l0.061,-0.077l0.062,-0.075l0.062,-0.075l0.064,-0.075l0.064,-0.073l0.066,-0.073l0.066,-0.072l0.067,-0.071l0.068,-0.07l0.068,-0.07l0.07,-0.069l0.07,-0.067l0.071,-0.067l0.072,-0.067l0.073,-0.065l0.074,-0.064l0.074,-0.064l0.075,-0.063l0.076,-0.061l0.076,-0.061l0.078,-0.06l0.078,-0.059l0.078,-0.059l0.08,-0.057l0.08,-0.056l0.081,-0.056l0.081,-0.054l0.083,-0.054l0.083,-0.052l0.083,-0.052l0.085,-0.05l0.085,-0.05l0.085,-0.048l0.086,-0.048l0.087,-0.046l0.088,-0.046l0.088,-0.044l0.089,-0.044l0.089,-0.042l0.09,-0.041l0.09,-0.041l0.091,-0.039l0.092,-0.038l0.092,-0.037l0.093,-0.036l0.093,-0.035l0.094,-0.034l0.094,-0.032l0.095,-0.032l0.095,-0.03l0.096,-0.029l0.097,-0.028l0.096,-0.027l0.098,-0.026l0.097,-0.024l0.099,-0.024l0.098,-0.022l0.1,-0.021l0.099,-0.019l0.1,-0.019l0.101,-0.017l0.1,-0.016l0.102,-0.015l0.101,-0.014l0.102,-0.012l0.103,-0.011l0.103,-0.01l0.103,-0.009l0.103,-0.007l0.104,-0.006l0.104,-0.004l0.105,-0.004l0.105,-0.002l0.105,0l0.105,0Zm-0.172,2.974l-0.068,0.001l-0.067,0.003l-0.066,0.003l-0.066,0.003l-0.066,0.005l-0.066,0.005l-0.065,0.007l-0.065,0.007l-0.065,0.007l-0.064,0.009l-0.065,0.01l-0.064,0.01l-0.063,0.011l-0.064,0.011l-0.063,0.013l-0.062,0.013l-0.063,0.014l-0.062,0.015l-0.062,0.015l-0.061,0.017l-0.061,0.017l-0.061,0.017l-0.061,0.019l-0.06,0.019l-0.06,0.02l-0.059,0.02l-0.06,0.022l-0.059,0.022l-0.058,0.022l-0.059,0.024l-0.057,0.024l-0.058,0.025l-0.058,0.025l-0.056,0.026l-0.057,0.027l-0.056,0.028l-0.056,0.028l-0.055,0.029l-0.055,0.029l-0.055,0.03l-0.054,0.031l-0.054,0.032l-0.054,0.032l-0.053,0.033l-0.053,0.033l-0.052,0.034l-0.052,0.034l-0.051,0.036l-0.051,0.036l-0.051,0.036l-0.05,0.037l-0.05,0.038l-0.049,0.038l-0.049,0.039l-0.048,0.039l-0.048,0.04l-0.047,0.04l-0.047,0.042l-0.046,0.041l-0.046,0.042l-0.046,0.043l-0.044,0.043l-0.044,0.044l-0.044,0.045l-0.044,0.044l-0.042,0.046l-0.043,0.046l-0.041,0.046l-0.041,0.047l-0.041,0.047l-0.04,0.048l-0.039,0.048l-0.039,0.049l-0.038,0.049l-0.038,0.05l-0.037,0.05l-0.036,0.051l-0.036,0.051l-0.035,0.051l-0.035,0.052l-0.034,0.052l-0.033,0.053l-0.033,0.053l-0.032,0.054l-0.031,0.053l-0.031,0.055l-0.031,0.055l-0.029,0.055l-0.029,0.055l-0.028,0.056l-0.027,0.056l-0.027,0.057l-0.027,0.056l-0.025,0.058l-0.025,0.057l-0.024,0.058l-0.023,0.059l-0.023,0.058l-0.022,0.059l-0.021,0.059l-0.021,0.06l-0.02,0.06l-0.019,0.06l-0.018,0.061l-0.018,0.06l-0.017,0.062l-0.016,0.061l-0.016,0.062l-0.015,0.062l-0.014,0.062l-0.013,0.063l-0.012,0.063l-0.012,0.064l-0.011,0.063l-0.01,0.064l-0.01,0.064l-0.008,0.064l-0.008,0.065l-0.007,0.066l-0.006,0.065l-0.006,0.065l-0.004,0.066l-0.004,0.067l-0.003,0.066l-0.002,0.067l-0.002,0.068l0,0.077l0,0.043l0,0.077l0.002,0.067l0.002,0.067l0.003,0.066l0.004,0.067l0.004,0.066l0.006,0.065l0.006,0.066l0.007,0.065l0.008,0.065l0.008,0.064l0.01,0.064l0.01,0.064l0.011,0.064l0.012,0.063l0.012,0.063l0.013,0.063l0.014,0.062l0.015,0.062l0.016,0.062l0.016,0.062l0.017,0.061l0.018,0.061l0.018,0.06l0.019,0.06l0.02,0.06l0.021,0.06l0.021,0.059l0.022,0.059l0.023,0.059l0.023,0.058l0.024,0.058l0.025,0.058l0.025,0.057l0.027,0.057l0.027,0.056l0.027,0.056l0.028,0.056l0.029,0.056l0.029,0.055l0.031,0.055l0.03,0.054l0.032,0.054l0.032,0.053l0.033,0.053l0.033,0.053l0.034,0.053l0.035,0.051l0.035,0.052l0.036,0.051l0.036,0.051l0.037,0.049l0.038,0.05l0.038,0.049l0.039,0.049l0.039,0.049l0.04,0.047l0.041,0.047l0.041,0.047l0.041,0.047l0.043,0.046l0.042,0.045l0.044,0.045l0.044,0.044l0.044,0.044l0.045,0.043l0.045,0.043l0.046,0.042l0.046,0.042l0.047,0.041l0.047,0.04l0.048,0.04l0.048,0.04l0.049,0.038l0.049,0.039l0.05,0.037l0.05,0.037l0.051,0.037l0.051,0.036l0.051,0.035l0.052,0.034l0.052,0.034l0.053,0.034l0.053,0.033l0.054,0.032l0.054,0.031l0.054,0.031l0.055,0.03l0.055,0.03l0.055,0.028l0.056,0.029l0.056,0.027l0.057,0.027l0.057,0.026l0.057,0.025l0.058,0.025l0.057,0.024l0.059,0.024l0.058,0.023l0.059,0.022l0.06,0.021l0.059,0.02l0.06,0.02l0.06,0.02l0.061,0.018l0.061,0.018l0.061,0.017l0.061,0.016l0.062,0.015l0.062,0.015l0.063,0.014l0.062,0.013l0.063,0.013l0.064,0.012l0.063,0.011l0.064,0.01l0.064,0.009l0.065,0.009l0.065,0.008l0.065,0.007l0.065,0.006l0.066,0.005l0.066,0.005l0.066,0.004l0.067,0.003l0.066,0.002l0.068,0.001l0.067,0.001l0.068,-0.001l0.067,-0.001l0.067,-0.002l0.066,-0.003l0.066,-0.004l0.066,-0.005l0.066,-0.005l0.065,-0.006l0.065,-0.007l0.065,-0.008l0.065,-0.009l0.064,-0.009l0.064,-0.01l0.063,-0.011l0.064,-0.012l0.063,-0.013l0.062,-0.013l0.063,-0.014l0.062,-0.015l0.062,-0.015l0.061,-0.016l0.061,-0.017l0.061,-0.018l0.061,-0.018l0.06,-0.02l0.06,-0.02l0.059,-0.02l0.06,-0.021l0.059,-0.022l0.058,-0.023l0.059,-0.024l0.058,-0.024l0.057,-0.024l0.057,-0.026l0.057,-0.026l0.057,-0.027l0.056,-0.027l0.056,-0.029l0.055,-0.028l0.056,-0.03l0.054,-0.03l0.054,-0.031l0.054,-0.031l0.054,-0.033l0.053,-0.032l0.053,-0.034l0.052,-0.034l0.052,-0.034l0.051,-0.035l0.051,-0.036l0.051,-0.037l0.05,-0.037l0.05,-0.037l0.049,-0.039l0.049,-0.038l0.048,-0.04l0.048,-0.04l0.047,-0.04l0.047,-0.041l0.046,-0.042l0.046,-0.042l0.045,-0.043l0.046,-0.043l0.044,-0.044l0.043,-0.044l0.044,-0.045l0.043,-0.045l0.042,-0.046l0.041,-0.046l0.041,-0.048l0.041,-0.047l0.04,-0.048l0.039,-0.048l0.039,-0.049l0.038,-0.049l0.038,-0.049l0.037,-0.051l0.036,-0.05l0.036,-0.051l0.035,-0.052l0.035,-0.052l0.034,-0.052l0.033,-0.053l0.033,-0.053l0.032,-0.053l0.032,-0.054l0.03,-0.054l0.031,-0.055l0.029,-0.055l0.029,-0.056l0.028,-0.056l0.028,-0.056l0.026,-0.056l0.026,-0.057l0.026,-0.058l0.025,-0.058l0.024,-0.057l0.023,-0.058l0.023,-0.059l0.022,-0.059l0.022,-0.059l0.02,-0.06l0.02,-0.06l0.019,-0.06l0.019,-0.06l0.017,-0.061l0.017,-0.061l0.016,-0.062l0.016,-0.062l0.015,-0.062l0.014,-0.062l0.013,-0.062l0.012,-0.064l0.012,-0.064l0.011,-0.062l0.01,-0.065l0.01,-0.064l0.008,-0.064l0.008,-0.065l0.007,-0.066l0.007,-0.064l0.005,-0.066l0.005,-0.067l0.003,-0.065l0.003,-0.067l0.002,-0.067l0.002,-0.067l0,-0.077l0,-0.044l0,-0.077l-0.002,-0.067l-0.002,-0.067l-0.003,-0.067l-0.003,-0.065l-0.005,-0.067l-0.005,-0.065l-0.007,-0.065l-0.007,-0.066l-0.008,-0.065l-0.008,-0.063l-0.01,-0.065l-0.01,-0.064l-0.011,-0.063l-0.011,-0.064l-0.013,-0.063l-0.013,-0.062l-0.014,-0.063l-0.015,-0.062l-0.016,-0.062l-0.016,-0.061l-0.017,-0.061l-0.017,-0.061l-0.019,-0.061l-0.019,-0.06l-0.02,-0.06l-0.02,-0.06l-0.022,-0.059l-0.022,-0.059l-0.023,-0.059l-0.023,-0.058l-0.024,-0.057l-0.025,-0.058l-0.026,-0.058l-0.026,-0.057l-0.026,-0.056l-0.028,-0.056l-0.028,-0.056l-0.029,-0.056l-0.029,-0.055l-0.031,-0.055l-0.03,-0.054l-0.032,-0.053l-0.032,-0.054l-0.033,-0.053l-0.033,-0.053l-0.034,-0.052l-0.035,-0.052l-0.035,-0.051l-0.036,-0.051l-0.036,-0.051l-0.037,-0.05l-0.038,-0.05l-0.038,-0.049l-0.039,-0.049l-0.039,-0.048l-0.04,-0.048l-0.041,-0.047l-0.041,-0.047l-0.041,-0.047l-0.042,-0.045l-0.043,-0.046l-0.044,-0.045l-0.043,-0.044l-0.044,-0.043l-0.046,-0.044l-0.045,-0.043l-0.046,-0.042l-0.046,-0.041l-0.047,-0.041l-0.047,-0.041l-0.048,-0.04l-0.048,-0.039l-0.049,-0.039l-0.049,-0.038l-0.05,-0.038l-0.05,-0.037l-0.051,-0.036l-0.05,-0.036l-0.052,-0.035l-0.052,-0.035l-0.053,-0.034l-0.052,-0.033l-0.053,-0.033l-0.054,-0.032l-0.054,-0.032l-0.054,-0.03l-0.054,-0.031l-0.055,-0.029l-0.056,-0.029l-0.056,-0.028l-0.056,-0.028l-0.057,-0.027l-0.056,-0.026l-0.058,-0.025l-0.057,-0.025l-0.058,-0.024l-0.059,-0.024l-0.058,-0.022l-0.059,-0.022l-0.059,-0.022l-0.06,-0.02l-0.06,-0.02l-0.06,-0.019l-0.061,-0.019l-0.061,-0.017l-0.061,-0.017l-0.061,-0.017l-0.062,-0.015l-0.062,-0.015l-0.063,-0.014l-0.062,-0.013l-0.063,-0.013l-0.064,-0.011l-0.063,-0.011l-0.064,-0.01l-0.064,-0.01l-0.065,-0.009l-0.065,-0.007l-0.065,-0.007l-0.065,-0.007l-0.066,-0.005l-0.066,-0.005l-0.066,-0.003l-0.066,-0.003l-0.067,-0.003l-0.068,-0.001l-0.067,0l-0.067,0Z"/><path d="M108.787,86.127c0,-4.495 -3.649,-8.144 -8.144,-8.144c-4.495,0 -8.144,3.649 -8.144,8.144l0,0.062c0,4.495 3.649,8.145 8.144,8.145c4.495,0 8.144,-3.65 8.144,-8.145l0,-0.062Z"/><path d="M100.748,77.983l0.105,0.002l0.105,0.004l0.104,0.004l0.104,0.006l0.103,0.007l0.103,0.009l0.103,0.01l0.103,0.011l0.102,0.012l0.101,0.014l0.101,0.015l0.101,0.016l0.101,0.017l0.1,0.019l0.099,0.019l0.1,0.021l0.098,0.022l0.098,0.024l0.098,0.024l0.098,0.026l0.096,0.027l0.097,0.028l0.096,0.029l0.095,0.03l0.095,0.032l0.094,0.032l0.094,0.034l0.093,0.035l0.093,0.036l0.092,0.037l0.092,0.038l0.091,0.039l0.09,0.041l0.09,0.041l0.089,0.042l0.089,0.044l0.088,0.044l0.088,0.046l0.087,0.046l0.086,0.048l0.085,0.048l0.085,0.05l0.085,0.05l0.083,0.052l0.083,0.052l0.082,0.054l0.082,0.054l0.081,0.056l0.08,0.056l0.08,0.057l0.078,0.059l0.078,0.059l0.078,0.06l0.076,0.061l0.076,0.061l0.075,0.063l0.074,0.064l0.074,0.064l0.073,0.065l0.072,0.067l0.071,0.067l0.07,0.067l0.07,0.069l0.068,0.07l0.068,0.07l0.067,0.071l0.066,0.072l0.066,0.073l0.064,0.073l0.064,0.075l0.062,0.075l0.062,0.075l0.061,0.077l0.06,0.077l0.059,0.078l0.058,0.079l0.058,0.08l0.056,0.08l0.055,0.081l0.055,0.081l0.053,0.083l0.053,0.083l0.051,0.083l0.051,0.084l0.049,0.085l0.049,0.086l0.048,0.086l0.046,0.087l0.046,0.088l0.044,0.088l0.043,0.088l0.043,0.09l0.041,0.09l0.04,0.09l0.04,0.091l0.038,0.092l0.037,0.092l0.036,0.093l0.035,0.093l0.033,0.094l0.033,0.094l0.031,0.095l0.031,0.095l0.029,0.096l0.028,0.096l0.027,0.097l0.025,0.098l0.025,0.097l0.023,0.099l0.023,0.098l0.02,0.099l0.02,0.1l0.019,0.1l0.017,0.1l0.016,0.101l0.015,0.102l0.014,0.101l0.012,0.102l0.011,0.103l0.01,0.102l0.008,0.104l0.008,0.103l0.005,0.104l0.005,0.104l0.003,0.105l0.002,0.105l0.001,0.105l0,0.062l-0.001,0.106l-0.002,0.105l-0.003,0.104l-0.005,0.104l-0.005,0.104l-0.008,0.104l-0.008,0.103l-0.01,0.103l-0.011,0.102l-0.012,0.102l-0.014,0.102l-0.015,0.101l-0.016,0.101l-0.017,0.1l-0.019,0.1l-0.02,0.1l-0.02,0.099l-0.023,0.099l-0.023,0.098l-0.025,0.098l-0.025,0.097l-0.027,0.097l-0.028,0.096l-0.029,0.096l-0.031,0.096l-0.031,0.094l-0.033,0.095l-0.033,0.094l-0.035,0.093l-0.036,0.092l-0.037,0.093l-0.038,0.091l-0.04,0.091l-0.04,0.091l-0.041,0.09l-0.043,0.089l-0.043,0.089l-0.044,0.088l-0.046,0.087l-0.046,0.087l-0.048,0.086l-0.049,0.086l-0.049,0.085l-0.051,0.084l-0.051,0.084l-0.053,0.083l-0.053,0.082l-0.055,0.082l-0.055,0.081l-0.056,0.08l-0.058,0.079l-0.058,0.079l-0.059,0.078l-0.06,0.077l-0.061,0.077l-0.062,0.076l-0.062,0.075l-0.064,0.074l-0.064,0.074l-0.066,0.072l-0.066,0.072l-0.067,0.071l-0.068,0.071l-0.068,0.069l-0.07,0.069l-0.07,0.068l-0.071,0.067l-0.072,0.066l-0.073,0.065l-0.074,0.065l-0.074,0.063l-0.075,0.063l-0.076,0.062l-0.076,0.061l-0.078,0.06l-0.078,0.059l-0.078,0.058l-0.08,0.057l-0.08,0.057l-0.081,0.055l-0.082,0.054l-0.082,0.054l-0.083,0.052l-0.083,0.052l-0.085,0.05l-0.085,0.05l-0.085,0.049l-0.086,0.047l-0.087,0.047l-0.088,0.045l-0.088,0.045l-0.089,0.043l-0.089,0.042l-0.09,0.042l-0.09,0.04l-0.091,0.039l-0.092,0.038l-0.092,0.037l-0.093,0.036l-0.093,0.035l-0.094,0.034l-0.094,0.032l-0.095,0.032l-0.095,0.03l-0.096,0.029l-0.097,0.028l-0.096,0.027l-0.098,0.026l-0.098,0.025l-0.098,0.023l-0.098,0.022l-0.1,0.021l-0.099,0.02l-0.1,0.018l-0.101,0.018l-0.101,0.016l-0.101,0.015l-0.101,0.013l-0.102,0.012l-0.103,0.012l-0.103,0.009l-0.103,0.009l-0.103,0.007l-0.104,0.006l-0.104,0.005l-0.105,0.003l-0.105,0.002l-0.105,0.001l-0.105,-0.001l-0.105,-0.002l-0.105,-0.003l-0.104,-0.005l-0.104,-0.006l-0.103,-0.007l-0.104,-0.009l-0.102,-0.009l-0.103,-0.012l-0.102,-0.012l-0.101,-0.013l-0.102,-0.015l-0.101,-0.016l-0.1,-0.018l-0.1,-0.018l-0.1,-0.02l-0.099,-0.021l-0.098,-0.022l-0.099,-0.023l-0.097,-0.025l-0.098,-0.026l-0.097,-0.027l-0.096,-0.028l-0.096,-0.029l-0.095,-0.03l-0.095,-0.032l-0.094,-0.032l-0.094,-0.034l-0.093,-0.035l-0.093,-0.036l-0.092,-0.037l-0.092,-0.038l-0.091,-0.039l-0.09,-0.04l-0.09,-0.042l-0.09,-0.042l-0.088,-0.043l-0.088,-0.045l-0.088,-0.045l-0.087,-0.047l-0.086,-0.047l-0.086,-0.049l-0.085,-0.05l-0.084,-0.05l-0.083,-0.052l-0.083,-0.052l-0.083,-0.054l-0.081,-0.054l-0.081,-0.055l-0.08,-0.057l-0.08,-0.057l-0.079,-0.058l-0.078,-0.059l-0.077,-0.06l-0.077,-0.061l-0.075,-0.062l-0.075,-0.063l-0.075,-0.063l-0.073,-0.065l-0.073,-0.065l-0.072,-0.066l-0.071,-0.067l-0.07,-0.068l-0.07,-0.069l-0.068,-0.069l-0.068,-0.071l-0.067,-0.071l-0.067,-0.072l-0.065,-0.072l-0.064,-0.074l-0.064,-0.074l-0.063,-0.075l-0.061,-0.076l-0.061,-0.077l-0.06,-0.077l-0.059,-0.078l-0.059,-0.079l-0.057,-0.079l-0.056,-0.08l-0.056,-0.081l-0.054,-0.082l-0.053,-0.082l-0.053,-0.083l-0.052,-0.084l-0.05,-0.084l-0.05,-0.085l-0.048,-0.086l-0.048,-0.086l-0.046,-0.087l-0.046,-0.087l-0.044,-0.088l-0.044,-0.089l-0.042,-0.089l-0.041,-0.09l-0.041,-0.091l-0.039,-0.091l-0.038,-0.091l-0.037,-0.093l-0.036,-0.092l-0.035,-0.093l-0.033,-0.094l-0.033,-0.095l-0.032,-0.094l-0.03,-0.096l-0.029,-0.096l-0.028,-0.096l-0.027,-0.097l-0.026,-0.097l-0.024,-0.098l-0.024,-0.098l-0.022,-0.099l-0.021,-0.099l-0.019,-0.1l-0.019,-0.1l-0.017,-0.1l-0.016,-0.101l-0.015,-0.101l-0.014,-0.102l-0.012,-0.102l-0.011,-0.102l-0.01,-0.103l-0.009,-0.103l-0.007,-0.104l-0.006,-0.104l-0.004,-0.104l-0.004,-0.104l-0.002,-0.105l0,-0.106l0,-0.062l0,-0.105l0.002,-0.105l0.004,-0.105l0.004,-0.104l0.006,-0.104l0.007,-0.103l0.009,-0.104l0.01,-0.102l0.011,-0.103l0.012,-0.102l0.014,-0.101l0.015,-0.102l0.016,-0.101l0.017,-0.1l0.019,-0.1l0.019,-0.1l0.021,-0.099l0.022,-0.098l0.024,-0.099l0.024,-0.097l0.026,-0.098l0.027,-0.097l0.028,-0.096l0.029,-0.096l0.03,-0.095l0.032,-0.095l0.033,-0.094l0.033,-0.094l0.035,-0.093l0.036,-0.093l0.037,-0.092l0.038,-0.092l0.039,-0.091l0.041,-0.09l0.041,-0.09l0.042,-0.09l0.044,-0.088l0.044,-0.088l0.046,-0.088l0.046,-0.087l0.048,-0.086l0.048,-0.086l0.05,-0.085l0.05,-0.084l0.052,-0.083l0.053,-0.083l0.053,-0.083l0.054,-0.081l0.056,-0.081l0.056,-0.08l0.057,-0.08l0.059,-0.079l0.059,-0.078l0.06,-0.077l0.061,-0.077l0.061,-0.075l0.063,-0.075l0.064,-0.075l0.064,-0.073l0.065,-0.073l0.067,-0.072l0.067,-0.071l0.068,-0.07l0.068,-0.07l0.07,-0.069l0.07,-0.067l0.071,-0.067l0.072,-0.067l0.073,-0.065l0.073,-0.064l0.075,-0.064l0.075,-0.063l0.075,-0.061l0.077,-0.061l0.077,-0.06l0.078,-0.059l0.079,-0.059l0.08,-0.057l0.08,-0.056l0.081,-0.056l0.081,-0.054l0.083,-0.054l0.083,-0.052l0.083,-0.052l0.084,-0.05l0.085,-0.05l0.086,-0.048l0.086,-0.048l0.087,-0.046l0.088,-0.046l0.088,-0.044l0.088,-0.044l0.09,-0.042l0.09,-0.041l0.09,-0.041l0.091,-0.039l0.092,-0.038l0.092,-0.037l0.093,-0.036l0.093,-0.035l0.094,-0.034l0.094,-0.032l0.095,-0.032l0.095,-0.03l0.096,-0.029l0.096,-0.028l0.097,-0.027l0.098,-0.026l0.097,-0.024l0.099,-0.024l0.098,-0.022l0.099,-0.021l0.1,-0.019l0.1,-0.019l0.1,-0.017l0.101,-0.016l0.102,-0.015l0.101,-0.014l0.102,-0.012l0.103,-0.011l0.102,-0.01l0.104,-0.009l0.103,-0.007l0.104,-0.006l0.104,-0.004l0.105,-0.004l0.105,-0.002l0.105,0l0.105,0Zm-0.172,2.974l-0.068,0.001l-0.067,0.003l-0.066,0.003l-0.066,0.003l-0.067,0.005l-0.065,0.005l-0.065,0.007l-0.066,0.007l-0.064,0.007l-0.065,0.009l-0.064,0.01l-0.064,0.01l-0.063,0.011l-0.064,0.011l-0.063,0.013l-0.062,0.013l-0.063,0.014l-0.062,0.015l-0.062,0.015l-0.061,0.017l-0.061,0.017l-0.061,0.017l-0.061,0.019l-0.06,0.019l-0.06,0.02l-0.06,0.02l-0.059,0.022l-0.059,0.022l-0.059,0.022l-0.058,0.024l-0.057,0.024l-0.058,0.025l-0.058,0.025l-0.056,0.026l-0.057,0.027l-0.056,0.028l-0.056,0.028l-0.056,0.029l-0.055,0.029l-0.054,0.031l-0.054,0.03l-0.054,0.032l-0.054,0.032l-0.053,0.033l-0.053,0.033l-0.052,0.034l-0.052,0.035l-0.051,0.035l-0.051,0.036l-0.051,0.036l-0.05,0.037l-0.05,0.038l-0.049,0.038l-0.049,0.039l-0.048,0.039l-0.048,0.04l-0.047,0.04l-0.047,0.042l-0.047,0.042l-0.045,0.041l-0.045,0.043l-0.045,0.043l-0.045,0.044l-0.044,0.045l-0.043,0.044l-0.042,0.045l-0.043,0.047l-0.041,0.046l-0.041,0.047l-0.041,0.047l-0.04,0.048l-0.039,0.048l-0.039,0.049l-0.038,0.049l-0.038,0.05l-0.037,0.05l-0.036,0.051l-0.037,0.051l-0.034,0.051l-0.035,0.052l-0.034,0.052l-0.033,0.053l-0.033,0.053l-0.032,0.054l-0.032,0.053l-0.031,0.055l-0.03,0.055l-0.029,0.054l-0.029,0.056l-0.028,0.056l-0.027,0.056l-0.027,0.056l-0.027,0.057l-0.025,0.058l-0.025,0.057l-0.024,0.059l-0.024,0.058l-0.022,0.058l-0.022,0.059l-0.022,0.059l-0.02,0.06l-0.02,0.06l-0.019,0.06l-0.019,0.061l-0.017,0.06l-0.017,0.062l-0.017,0.062l-0.015,0.062l-0.015,0.061l-0.014,0.062l-0.013,0.063l-0.013,0.064l-0.011,0.062l-0.011,0.064l-0.011,0.065l-0.009,0.063l-0.008,0.064l-0.008,0.065l-0.007,0.065l-0.007,0.066l-0.005,0.065l-0.005,0.066l-0.003,0.067l-0.003,0.067l-0.002,0.066l-0.002,0.067l0,0.077l0,0.044l0,0.077l0.002,0.067l0.002,0.067l0.003,0.066l0.003,0.067l0.005,0.066l0.005,0.065l0.007,0.066l0.007,0.065l0.008,0.065l0.008,0.064l0.009,0.064l0.011,0.065l0.011,0.063l0.011,0.063l0.013,0.063l0.013,0.063l0.014,0.063l0.015,0.061l0.015,0.062l0.017,0.062l0.017,0.061l0.017,0.061l0.019,0.06l0.019,0.061l0.02,0.059l0.02,0.06l0.022,0.059l0.022,0.059l0.023,0.059l0.023,0.058l0.024,0.058l0.025,0.058l0.025,0.057l0.027,0.057l0.027,0.057l0.027,0.055l0.028,0.056l0.029,0.056l0.029,0.054l0.03,0.055l0.031,0.055l0.032,0.054l0.032,0.054l0.033,0.052l0.033,0.053l0.034,0.053l0.035,0.051l0.034,0.051l0.037,0.052l0.036,0.051l0.037,0.049l0.038,0.05l0.038,0.049l0.039,0.049l0.039,0.049l0.04,0.047l0.04,0.047l0.041,0.047l0.042,0.046l0.043,0.047l0.042,0.045l0.043,0.045l0.044,0.044l0.045,0.044l0.045,0.043l0.045,0.043l0.045,0.042l0.047,0.042l0.047,0.041l0.047,0.04l0.048,0.04l0.048,0.04l0.049,0.038l0.049,0.039l0.05,0.037l0.05,0.037l0.051,0.037l0.051,0.036l0.051,0.035l0.052,0.034l0.052,0.034l0.053,0.034l0.053,0.033l0.054,0.032l0.054,0.031l0.054,0.031l0.054,0.03l0.056,0.03l0.055,0.028l0.056,0.029l0.056,0.027l0.057,0.027l0.056,0.026l0.058,0.026l0.058,0.024l0.057,0.024l0.058,0.024l0.059,0.023l0.059,0.022l0.059,0.021l0.06,0.02l0.06,0.02l0.06,0.02l0.061,0.018l0.061,0.018l0.061,0.017l0.061,0.016l0.062,0.015l0.062,0.015l0.063,0.014l0.062,0.013l0.063,0.013l0.064,0.012l0.063,0.011l0.064,0.01l0.064,0.009l0.065,0.009l0.064,0.008l0.066,0.007l0.065,0.006l0.066,0.005l0.066,0.005l0.066,0.004l0.066,0.003l0.067,0.002l0.067,0.001l0.068,0.001l0.067,-0.001l0.067,-0.001l0.067,-0.002l0.067,-0.003l0.066,-0.004l0.066,-0.005l0.066,-0.005l0.065,-0.006l0.065,-0.007l0.065,-0.008l0.065,-0.009l0.064,-0.009l0.064,-0.01l0.063,-0.011l0.064,-0.012l0.062,-0.013l0.063,-0.013l0.062,-0.014l0.063,-0.015l0.062,-0.015l0.061,-0.016l0.061,-0.017l0.061,-0.018l0.06,-0.018l0.061,-0.02l0.06,-0.02l0.059,-0.02l0.06,-0.021l0.059,-0.022l0.058,-0.023l0.058,-0.024l0.059,-0.024l0.057,-0.025l0.057,-0.025l0.057,-0.026l0.057,-0.027l0.056,-0.027l0.056,-0.029l0.055,-0.028l0.055,-0.03l0.055,-0.03l0.054,-0.031l0.054,-0.031l0.054,-0.032l0.053,-0.033l0.053,-0.034l0.052,-0.034l0.052,-0.034l0.051,-0.035l0.051,-0.036l0.051,-0.037l0.05,-0.037l0.05,-0.037l0.049,-0.039l0.049,-0.038l0.048,-0.04l0.047,-0.04l0.048,-0.04l0.047,-0.041l0.046,-0.042l0.046,-0.042l0.046,-0.043l0.044,-0.043l0.044,-0.044l0.044,-0.044l0.044,-0.045l0.042,-0.045l0.042,-0.046l0.042,-0.047l0.041,-0.047l0.041,-0.047l0.04,-0.048l0.039,-0.048l0.039,-0.049l0.038,-0.049l0.038,-0.049l0.037,-0.05l0.036,-0.051l0.036,-0.051l0.035,-0.052l0.035,-0.052l0.034,-0.052l0.033,-0.053l0.033,-0.053l0.032,-0.053l0.032,-0.054l0.03,-0.055l0.03,-0.054l0.03,-0.055l0.029,-0.056l0.028,-0.055l0.028,-0.057l0.026,-0.057l0.027,-0.056l0.025,-0.057l0.025,-0.058l0.024,-0.058l0.023,-0.058l0.023,-0.058l0.022,-0.059l0.021,-0.06l0.021,-0.06l0.02,-0.06l0.019,-0.06l0.018,-0.06l0.018,-0.061l0.017,-0.061l0.016,-0.062l0.016,-0.062l0.015,-0.062l0.014,-0.062l0.013,-0.063l0.012,-0.063l0.012,-0.063l0.011,-0.064l0.01,-0.064l0.01,-0.064l0.008,-0.064l0.008,-0.065l0.007,-0.066l0.006,-0.064l0.006,-0.066l0.004,-0.067l0.004,-0.066l0.003,-0.066l0.002,-0.067l0.002,-0.068l0,-0.076l0,-0.044l0,-0.076l-0.002,-0.068l-0.002,-0.067l-0.003,-0.066l-0.004,-0.066l-0.004,-0.067l-0.006,-0.065l-0.006,-0.065l-0.007,-0.066l-0.008,-0.065l-0.008,-0.064l-0.01,-0.064l-0.01,-0.063l-0.011,-0.065l-0.012,-0.063l-0.012,-0.063l-0.013,-0.062l-0.014,-0.063l-0.015,-0.062l-0.016,-0.062l-0.016,-0.061l-0.017,-0.061l-0.018,-0.061l-0.018,-0.061l-0.019,-0.06l-0.02,-0.06l-0.021,-0.06l-0.021,-0.059l-0.022,-0.059l-0.023,-0.058l-0.023,-0.058l-0.024,-0.059l-0.025,-0.057l-0.025,-0.058l-0.027,-0.056l-0.026,-0.057l-0.028,-0.056l-0.028,-0.056l-0.029,-0.056l-0.03,-0.055l-0.03,-0.054l-0.031,-0.055l-0.031,-0.053l-0.032,-0.054l-0.033,-0.053l-0.033,-0.053l-0.034,-0.052l-0.035,-0.052l-0.035,-0.051l-0.036,-0.051l-0.036,-0.051l-0.037,-0.05l-0.038,-0.05l-0.038,-0.049l-0.039,-0.049l-0.039,-0.048l-0.04,-0.048l-0.041,-0.047l-0.041,-0.047l-0.042,-0.047l-0.042,-0.045l-0.042,-0.046l-0.044,-0.045l-0.044,-0.044l-0.044,-0.043l-0.044,-0.044l-0.046,-0.043l-0.046,-0.042l-0.046,-0.041l-0.047,-0.042l-0.048,-0.04l-0.047,-0.04l-0.049,-0.039l-0.048,-0.039l-0.049,-0.038l-0.05,-0.038l-0.05,-0.037l-0.051,-0.037l-0.051,-0.035l-0.051,-0.035l-0.052,-0.035l-0.052,-0.034l-0.053,-0.033l-0.053,-0.033l-0.054,-0.032l-0.054,-0.032l-0.054,-0.031l-0.055,-0.03l-0.055,-0.029l-0.055,-0.029l-0.056,-0.028l-0.056,-0.028l-0.057,-0.027l-0.056,-0.026l-0.058,-0.025l-0.058,-0.025l-0.058,-0.024l-0.058,-0.024l-0.058,-0.022l-0.059,-0.022l-0.06,-0.022l-0.059,-0.02l-0.06,-0.02l-0.061,-0.019l-0.06,-0.019l-0.061,-0.017l-0.061,-0.017l-0.061,-0.017l-0.062,-0.015l-0.063,-0.015l-0.062,-0.014l-0.063,-0.013l-0.062,-0.013l-0.064,-0.011l-0.063,-0.011l-0.064,-0.01l-0.065,-0.01l-0.064,-0.009l-0.065,-0.007l-0.065,-0.007l-0.065,-0.007l-0.066,-0.005l-0.066,-0.005l-0.066,-0.003l-0.066,-0.003l-0.068,-0.003l-0.067,-0.001l-0.067,0l-0.067,0Z"/><path d="M104.021,64.787c0,-3.592 -2.916,-6.508 -6.508,-6.508l-24.361,0c-3.592,0 -6.508,2.916 -6.508,6.508c0,3.592 2.916,6.508 6.508,6.508l24.361,0c3.592,0 6.508,-2.916 6.508,-6.508Z"/><path d="M97.597,58.28l0.084,0.002l0.083,0.002l0.084,0.004l0.083,0.005l0.082,0.005l0.083,0.007l0.082,0.008l0.082,0.009l0.081,0.01l0.082,0.011l0.08,0.011l0.081,0.013l0.08,0.014l0.08,0.015l0.08,0.016l0.079,0.016l0.079,0.018l0.078,0.019l0.079,0.019l0.077,0.021l0.078,0.021l0.077,0.023l0.076,0.023l0.076,0.024l0.076,0.026l0.076,0.026l0.075,0.027l0.074,0.027l0.074,0.029l0.074,0.03l0.073,0.03l0.073,0.032l0.072,0.032l0.072,0.033l0.071,0.034l0.071,0.034l0.071,0.036l0.069,0.036l0.07,0.037l0.069,0.038l0.068,0.039l0.068,0.04l0.067,0.04l0.067,0.041l0.067,0.042l0.065,0.043l0.065,0.043l0.065,0.045l0.064,0.045l0.064,0.046l0.063,0.046l0.062,0.047l0.062,0.048l0.061,0.049l0.061,0.049l0.059,0.05l0.06,0.051l0.059,0.052l0.058,0.052l0.057,0.053l0.057,0.053l0.056,0.055l0.056,0.054l0.055,0.056l0.054,0.056l0.053,0.057l0.053,0.057l0.052,0.059l0.052,0.058l0.051,0.06l0.05,0.06l0.049,0.06l0.049,0.061l0.048,0.062l0.047,0.063l0.047,0.062l0.045,0.064l0.045,0.064l0.045,0.065l0.043,0.065l0.043,0.066l0.042,0.066l0.041,0.067l0.04,0.067l0.04,0.068l0.039,0.068l0.038,0.069l0.037,0.07l0.036,0.07l0.036,0.07l0.035,0.071l0.033,0.071l0.033,0.072l0.033,0.072l0.031,0.073l0.03,0.073l0.03,0.074l0.029,0.074l0.028,0.075l0.027,0.075l0.026,0.075l0.025,0.076l0.024,0.076l0.023,0.076l0.023,0.077l0.021,0.078l0.021,0.078l0.019,0.078l0.019,0.078l0.018,0.079l0.016,0.079l0.016,0.08l0.015,0.08l0.014,0.08l0.013,0.081l0.012,0.081l0.01,0.081l0.01,0.081l0.009,0.082l0.008,0.082l0.007,0.083l0.006,0.083l0.004,0.083l0.004,0.083l0.003,0.083l0.001,0.084l0.001,0.084l-0.001,0.084l-0.001,0.084l-0.003,0.084l-0.004,0.083l-0.004,0.083l-0.006,0.083l-0.007,0.082l-0.008,0.082l-0.009,0.082l-0.01,0.082l-0.01,0.081l-0.012,0.081l-0.013,0.08l-0.014,0.081l-0.015,0.08l-0.016,0.079l-0.016,0.079l-0.018,0.079l-0.019,0.079l-0.019,0.078l-0.021,0.078l-0.021,0.077l-0.023,0.077l-0.023,0.077l-0.024,0.076l-0.025,0.076l-0.026,0.075l-0.027,0.075l-0.028,0.074l-0.029,0.074l-0.03,0.074l-0.03,0.073l-0.031,0.073l-0.033,0.072l-0.033,0.072l-0.033,0.072l-0.035,0.07l-0.036,0.071l-0.036,0.07l-0.037,0.069l-0.038,0.069l-0.039,0.068l-0.04,0.068l-0.04,0.068l-0.041,0.067l-0.042,0.066l-0.043,0.066l-0.043,0.065l-0.045,0.064l-0.045,0.064l-0.045,0.064l-0.047,0.063l-0.047,0.062l-0.048,0.062l-0.049,0.061l-0.049,0.061l-0.05,0.06l-0.051,0.059l-0.052,0.059l-0.052,0.058l-0.053,0.057l-0.053,0.057l-0.054,0.056l-0.055,0.056l-0.056,0.055l-0.056,0.054l-0.057,0.054l-0.057,0.053l-0.058,0.052l-0.059,0.051l-0.06,0.051l-0.059,0.05l-0.061,0.05l-0.061,0.048l-0.062,0.048l-0.062,0.047l-0.063,0.047l-0.064,0.046l-0.064,0.045l-0.065,0.044l-0.065,0.043l-0.065,0.043l-0.067,0.042l-0.067,0.041l-0.067,0.041l-0.068,0.039l-0.068,0.039l-0.069,0.038l-0.07,0.037l-0.069,0.037l-0.071,0.035l-0.071,0.035l-0.071,0.034l-0.072,0.033l-0.072,0.032l-0.073,0.031l-0.073,0.031l-0.074,0.029l-0.074,0.029l-0.074,0.028l-0.075,0.027l-0.076,0.026l-0.076,0.025l-0.076,0.024l-0.076,0.024l-0.077,0.022l-0.078,0.021l-0.077,0.021l-0.079,0.02l-0.078,0.018l-0.079,0.018l-0.079,0.017l-0.08,0.015l-0.08,0.015l-0.08,0.014l-0.081,0.013l-0.08,0.012l-0.082,0.011l-0.081,0.01l-0.082,0.008l-0.082,0.008l-0.083,0.007l-0.082,0.006l-0.083,0.005l-0.084,0.003l-0.083,0.003l-0.084,0.001l-0.084,0.001l-24.361,0l-0.084,-0.001l-0.084,-0.001l-0.084,-0.003l-0.083,-0.003l-0.083,-0.005l-0.083,-0.006l-0.082,-0.007l-0.082,-0.008l-0.082,-0.008l-0.082,-0.01l-0.081,-0.011l-0.081,-0.012l-0.08,-0.013l-0.081,-0.014l-0.08,-0.015l-0.079,-0.015l-0.079,-0.017l-0.079,-0.018l-0.079,-0.018l-0.078,-0.02l-0.078,-0.021l-0.077,-0.021l-0.077,-0.022l-0.077,-0.024l-0.076,-0.024l-0.076,-0.025l-0.075,-0.026l-0.075,-0.027l-0.075,-0.028l-0.074,-0.029l-0.073,-0.029l-0.073,-0.031l-0.073,-0.031l-0.073,-0.032l-0.071,-0.033l-0.072,-0.034l-0.071,-0.035l-0.07,-0.035l-0.07,-0.037l-0.069,-0.037l-0.069,-0.038l-0.069,-0.039l-0.067,-0.039l-0.068,-0.041l-0.067,-0.041l-0.066,-0.042l-0.066,-0.043l-0.065,-0.043l-0.065,-0.044l-0.064,-0.045l-0.063,-0.046l-0.063,-0.047l-0.062,-0.047l-0.062,-0.048l-0.061,-0.048l-0.061,-0.05l-0.06,-0.05l-0.059,-0.051l-0.059,-0.051l-0.058,-0.052l-0.058,-0.053l-0.056,-0.054l-0.057,-0.054l-0.055,-0.055l-0.055,-0.056l-0.054,-0.056l-0.054,-0.057l-0.053,-0.057l-0.052,-0.058l-0.051,-0.059l-0.051,-0.059l-0.05,-0.06l-0.05,-0.061l-0.048,-0.061l-0.048,-0.062l-0.048,-0.062l-0.046,-0.063l-0.046,-0.064l-0.045,-0.064l-0.044,-0.064l-0.044,-0.065l-0.042,-0.066l-0.042,-0.066l-0.041,-0.067l-0.041,-0.068l-0.039,-0.068l-0.039,-0.068l-0.038,-0.069l-0.037,-0.069l-0.037,-0.07l-0.035,-0.071l-0.035,-0.07l-0.034,-0.072l-0.033,-0.072l-0.032,-0.072l-0.031,-0.073l-0.031,-0.073l-0.029,-0.074l-0.029,-0.074l-0.028,-0.074l-0.027,-0.075l-0.026,-0.075l-0.025,-0.076l-0.024,-0.076l-0.024,-0.077l-0.022,-0.077l-0.022,-0.077l-0.02,-0.078l-0.02,-0.078l-0.018,-0.079l-0.018,-0.079l-0.017,-0.079l-0.016,-0.079l-0.014,-0.08l-0.014,-0.081l-0.013,-0.08l-0.012,-0.081l-0.011,-0.081l-0.01,-0.082l-0.009,-0.082l-0.007,-0.082l-0.007,-0.082l-0.006,-0.083l-0.005,-0.083l-0.003,-0.083l-0.003,-0.084l-0.002,-0.084l0,-0.084l0,-0.084l0.002,-0.084l0.003,-0.083l0.003,-0.083l0.005,-0.083l0.006,-0.083l0.007,-0.083l0.007,-0.082l0.009,-0.082l0.01,-0.081l0.011,-0.081l0.012,-0.081l0.013,-0.081l0.014,-0.08l0.014,-0.08l0.016,-0.08l0.017,-0.079l0.018,-0.079l0.018,-0.078l0.02,-0.078l0.02,-0.078l0.022,-0.078l0.022,-0.077l0.024,-0.076l0.024,-0.076l0.025,-0.076l0.026,-0.075l0.027,-0.075l0.028,-0.075l0.029,-0.074l0.029,-0.074l0.031,-0.073l0.031,-0.073l0.032,-0.072l0.033,-0.072l0.034,-0.071l0.035,-0.071l0.035,-0.07l0.037,-0.07l0.037,-0.07l0.038,-0.069l0.039,-0.068l0.039,-0.068l0.041,-0.067l0.041,-0.067l0.042,-0.066l0.042,-0.066l0.044,-0.065l0.044,-0.065l0.045,-0.064l0.046,-0.064l0.046,-0.062l0.048,-0.063l0.048,-0.062l0.048,-0.061l0.05,-0.06l0.05,-0.06l0.051,-0.06l0.051,-0.058l0.052,-0.059l0.053,-0.057l0.054,-0.057l0.054,-0.056l0.055,-0.056l0.055,-0.054l0.057,-0.055l0.056,-0.053l0.058,-0.053l0.058,-0.052l0.059,-0.052l0.059,-0.051l0.06,-0.05l0.061,-0.049l0.061,-0.049l0.062,-0.048l0.062,-0.047l0.063,-0.046l0.063,-0.046l0.064,-0.045l0.065,-0.045l0.065,-0.043l0.066,-0.043l0.066,-0.042l0.067,-0.041l0.068,-0.04l0.067,-0.04l0.069,-0.039l0.069,-0.038l0.069,-0.037l0.07,-0.036l0.07,-0.036l0.071,-0.034l0.072,-0.034l0.071,-0.033l0.073,-0.032l0.073,-0.032l0.073,-0.03l0.073,-0.03l0.074,-0.029l0.075,-0.027l0.075,-0.027l0.075,-0.026l0.076,-0.026l0.076,-0.024l0.077,-0.023l0.077,-0.023l0.077,-0.021l0.078,-0.021l0.078,-0.019l0.079,-0.019l0.079,-0.018l0.079,-0.016l0.079,-0.016l0.08,-0.015l0.081,-0.014l0.08,-0.013l0.081,-0.011l0.081,-0.011l0.082,-0.01l0.082,-0.009l0.082,-0.008l0.082,-0.007l0.083,-0.005l0.083,-0.005l0.083,-0.004l0.084,-0.002l0.084,-0.002l0.084,-0.001l24.361,0l0.084,0.001Zm-24.437,2.745l-0.058,0l-0.049,0.001l-0.048,0.002l-0.049,0.002l-0.048,0.002l-0.048,0.004l-0.048,0.004l-0.048,0.004l-0.047,0.005l-0.047,0.006l-0.047,0.006l-0.047,0.007l-0.046,0.008l-0.046,0.008l-0.047,0.008l-0.045,0.009l-0.046,0.01l-0.045,0.01l-0.046,0.011l-0.045,0.011l-0.044,0.012l-0.044,0.012l-0.045,0.013l-0.044,0.013l-0.044,0.014l-0.043,0.015l-0.043,0.015l-0.043,0.015l-0.044,0.016l-0.042,0.017l-0.042,0.017l-0.042,0.017l-0.042,0.018l-0.042,0.019l-0.041,0.019l-0.041,0.019l-0.041,0.02l-0.041,0.021l-0.04,0.021l-0.04,0.021l-0.04,0.022l-0.04,0.023l-0.039,0.023l-0.039,0.023l-0.039,0.024l-0.038,0.024l-0.038,0.025l-0.038,0.025l-0.037,0.026l-0.037,0.026l-0.037,0.027l-0.037,0.026l-0.036,0.028l-0.036,0.027l-0.035,0.029l-0.036,0.029l-0.034,0.028l-0.035,0.03l-0.034,0.03l-0.033,0.03l-0.034,0.031l-0.033,0.031l-0.033,0.032l-0.032,0.032l-0.032,0.032l-0.031,0.033l-0.032,0.033l-0.03,0.033l-0.03,0.034l-0.031,0.034l-0.029,0.034l-0.029,0.035l-0.029,0.036l-0.028,0.035l-0.028,0.036l-0.027,0.036l-0.027,0.036l-0.027,0.037l-0.026,0.038l-0.026,0.037l-0.024,0.037l-0.025,0.039l-0.025,0.038l-0.024,0.039l-0.023,0.039l-0.023,0.039l-0.022,0.04l-0.022,0.039l-0.021,0.04l-0.022,0.041l-0.02,0.04l-0.02,0.041l-0.02,0.041l-0.019,0.042l-0.018,0.041l-0.018,0.042l-0.018,0.042l-0.017,0.042l-0.016,0.043l-0.016,0.043l-0.016,0.043l-0.015,0.043l-0.014,0.044l-0.014,0.044l-0.014,0.044l-0.012,0.044l-0.013,0.045l-0.012,0.044l-0.011,0.046l-0.011,0.044l-0.01,0.046l-0.009,0.045l-0.009,0.046l-0.009,0.046l-0.008,0.047l-0.007,0.046l-0.007,0.047l-0.006,0.046l-0.006,0.047l-0.005,0.048l-0.005,0.048l-0.004,0.047l-0.003,0.048l-0.003,0.049l-0.002,0.048l-0.002,0.049l-0.001,0.049l0,0.049l0,0.049l0.001,0.049l0.002,0.049l0.002,0.049l0.003,0.048l0.003,0.048l0.004,0.047l0.005,0.048l0.005,0.048l0.006,0.047l0.006,0.047l0.007,0.047l0.007,0.046l0.008,0.046l0.009,0.047l0.009,0.045l0.009,0.046l0.01,0.045l0.011,0.045l0.011,0.045l0.012,0.045l0.013,0.044l0.012,0.045l0.014,0.043l0.014,0.044l0.014,0.044l0.015,0.043l0.016,0.043l0.016,0.043l0.016,0.043l0.017,0.042l0.018,0.042l0.018,0.042l0.018,0.042l0.019,0.041l0.02,0.041l0.02,0.041l0.02,0.041l0.021,0.04l0.022,0.04l0.022,0.04l0.022,0.039l0.023,0.04l0.023,0.039l0.024,0.038l0.025,0.039l0.024,0.038l0.025,0.037l0.026,0.038l0.026,0.037l0.027,0.037l0.027,0.036l0.027,0.037l0.028,0.036l0.028,0.035l0.029,0.035l0.029,0.035l0.03,0.034l0.029,0.035l0.031,0.033l0.03,0.034l0.032,0.033l0.031,0.033l0.032,0.032l0.032,0.032l0.033,0.031l0.033,0.031l0.034,0.031l0.033,0.03l0.034,0.03l0.035,0.03l0.034,0.029l0.036,0.028l0.035,0.029l0.036,0.028l0.036,0.027l0.037,0.027l0.037,0.027l0.037,0.026l0.037,0.025l0.038,0.026l0.038,0.024l0.038,0.025l0.039,0.023l0.039,0.024l0.039,0.023l0.04,0.022l0.04,0.022l0.04,0.021l0.04,0.021l0.041,0.021l0.041,0.02l0.041,0.019l0.041,0.019l0.042,0.019l0.042,0.018l0.042,0.018l0.042,0.017l0.043,0.016l0.043,0.016l0.043,0.016l0.043,0.015l0.044,0.014l0.043,0.014l0.044,0.013l0.045,0.013l0.044,0.013l0.045,0.011l0.045,0.012l0.045,0.01l0.045,0.011l0.046,0.009l0.046,0.009l0.046,0.009l0.046,0.008l0.046,0.007l0.047,0.007l0.047,0.006l0.047,0.006l0.047,0.005l0.048,0.005l0.048,0.004l0.048,0.003l0.048,0.003l0.049,0.002l0.048,0.001l0.049,0.001l0.058,0.001l24.344,0l0.058,-0.001l0.049,-0.001l0.049,-0.001l0.048,-0.002l0.049,-0.003l0.048,-0.003l0.048,-0.004l0.047,-0.005l0.048,-0.005l0.047,-0.006l0.047,-0.006l0.046,-0.007l0.047,-0.007l0.046,-0.008l0.046,-0.009l0.046,-0.009l0.046,-0.009l0.045,-0.011l0.045,-0.01l0.045,-0.012l0.045,-0.011l0.044,-0.013l0.044,-0.013l0.044,-0.013l0.044,-0.014l0.044,-0.014l0.043,-0.015l0.043,-0.016l0.043,-0.016l0.043,-0.016l0.042,-0.017l0.042,-0.018l0.042,-0.018l0.041,-0.018l0.042,-0.02l0.041,-0.019l0.041,-0.02l0.04,-0.021l0.041,-0.021l0.04,-0.021l0.04,-0.022l0.039,-0.022l0.039,-0.023l0.039,-0.024l0.039,-0.023l0.038,-0.025l0.039,-0.024l0.037,-0.026l0.038,-0.025l0.037,-0.026l0.037,-0.027l0.036,-0.027l0.036,-0.027l0.036,-0.028l0.036,-0.028l0.035,-0.029l0.035,-0.029l0.034,-0.03l0.034,-0.03l0.034,-0.03l0.033,-0.031l0.034,-0.031l0.032,-0.031l0.032,-0.032l0.032,-0.032l0.032,-0.033l0.031,-0.033l0.031,-0.034l0.03,-0.033l0.03,-0.034l0.03,-0.035l0.029,-0.035l0.028,-0.035l0.028,-0.035l0.028,-0.036l0.028,-0.037l0.027,-0.036l0.026,-0.037l0.027,-0.037l0.025,-0.038l0.025,-0.037l0.025,-0.038l0.024,-0.039l0.024,-0.038l0.023,-0.039l0.023,-0.04l0.023,-0.039l0.022,-0.04l0.021,-0.04l0.021,-0.041l0.021,-0.04l0.02,-0.041l0.019,-0.041l0.019,-0.041l0.019,-0.042l0.018,-0.042l0.017,-0.042l0.017,-0.042l0.017,-0.043l0.016,-0.043l0.015,-0.042l0.015,-0.044l0.015,-0.044l0.014,-0.044l0.013,-0.044l0.013,-0.044l0.012,-0.044l0.012,-0.045l0.011,-0.045l0.011,-0.045l0.01,-0.045l0.01,-0.046l0.009,-0.046l0.009,-0.046l0.007,-0.046l0.008,-0.046l0.007,-0.047l0.006,-0.047l0.006,-0.047l0.005,-0.048l0.004,-0.047l0.004,-0.048l0.004,-0.048l0.002,-0.048l0.003,-0.049l0.001,-0.049l0.001,-0.049l0,-0.049l0,-0.049l-0.001,-0.049l-0.001,-0.049l-0.003,-0.049l-0.002,-0.048l-0.004,-0.048l-0.004,-0.048l-0.004,-0.047l-0.005,-0.047l-0.006,-0.047l-0.006,-0.047l-0.007,-0.047l-0.008,-0.047l-0.007,-0.046l-0.009,-0.046l-0.009,-0.046l-0.01,-0.045l-0.01,-0.046l-0.011,-0.045l-0.011,-0.045l-0.012,-0.044l-0.012,-0.045l-0.013,-0.044l-0.013,-0.044l-0.014,-0.044l-0.015,-0.044l-0.015,-0.043l-0.015,-0.043l-0.016,-0.042l-0.017,-0.044l-0.017,-0.042l-0.017,-0.042l-0.018,-0.042l-0.019,-0.041l-0.019,-0.042l-0.019,-0.041l-0.02,-0.041l-0.021,-0.04l-0.021,-0.04l-0.021,-0.041l-0.022,-0.039l-0.023,-0.04l-0.023,-0.039l-0.023,-0.039l-0.024,-0.039l-0.024,-0.038l-0.025,-0.039l-0.025,-0.037l-0.025,-0.037l-0.027,-0.038l-0.026,-0.037l-0.027,-0.036l-0.027,-0.036l-0.028,-0.036l-0.029,-0.035l-0.028,-0.036l-0.029,-0.035l-0.03,-0.034l-0.03,-0.034l-0.03,-0.034l-0.031,-0.033l-0.031,-0.033l-0.032,-0.033l-0.032,-0.032l-0.032,-0.032l-0.032,-0.032l-0.034,-0.031l-0.033,-0.031l-0.034,-0.03l-0.034,-0.03l-0.034,-0.03l-0.035,-0.029l-0.035,-0.028l-0.036,-0.028l-0.036,-0.028l-0.036,-0.028l-0.036,-0.026l-0.037,-0.027l-0.037,-0.026l-0.038,-0.026l-0.037,-0.025l-0.039,-0.025l-0.038,-0.024l-0.039,-0.024l-0.039,-0.023l-0.039,-0.023l-0.039,-0.023l-0.04,-0.022l-0.04,-0.021l-0.041,-0.021l-0.04,-0.021l-0.041,-0.02l-0.041,-0.019l-0.042,-0.019l-0.041,-0.019l-0.042,-0.018l-0.042,-0.017l-0.042,-0.017l-0.043,-0.017l-0.043,-0.016l-0.043,-0.015l-0.043,-0.015l-0.044,-0.015l-0.044,-0.014l-0.044,-0.013l-0.044,-0.013l-0.045,-0.012l-0.044,-0.012l-0.045,-0.011l-0.045,-0.011l-0.046,-0.01l-0.045,-0.01l-0.046,-0.009l-0.046,-0.008l-0.046,-0.008l-0.047,-0.008l-0.046,-0.007l-0.047,-0.006l-0.047,-0.006l-0.048,-0.005l-0.048,-0.004l-0.047,-0.004l-0.048,-0.004l-0.049,-0.002l-0.048,-0.002l-0.049,-0.002l-0.049,-0.001l-0.058,0l-24.344,0Z"/></g></svg>