<?xml version="1.0" encoding="UTF-8" standalone="no"?><!DOCTYPE svg PUBLIC "-//W3C//DTD SVG 1.1//EN" "http://www.w3.org/Graphics/SVG/1.1/DTD/svg11.dtd"><svg width="100%" height="100%" viewBox="0 0 592 95" version="1.1" xmlns="http://www.w3.org/2000/svg" xmlns:xlink="http://www.w3.org/1999/xlink" xml:space="preserve" xmlns:serif="http://www.serif.com/" style="fill-rule:evenodd;clip-rule:evenodd;stroke-linejoin:round;stroke-miterlimit:1.41421;"><rect id="Artboard1" x="-149.669" y="-20" width="1950" height="500" style="fill:none;"/><g><path d="M381.268,71.309l0,-55.953l9.143,0l0,70.526l0.061,0.097l-1.309,-0.019l-19.831,0l0,-0.089l-35.149,-55.938l0,55.666l-9.143,0l0,-69.815l9.143,0l0,0.028l12.127,0l0,0.097l1.685,2.7c11.039,17.656 22.224,35.169 33.273,52.7Z" style="fill:#fff;"/><g><path d="M10.92,14.881l38.966,0l0,7.151l-21.252,0l0,17.753l21.601,0l0,7.151l-21.601,0l0,30.552l21.601,0l0,8.092l-39.129,0l0,-1l-0.077,0l0,-4.475l-0.014,0l-0.095,-65.224Z" style="fill:#fff;"/></g><path d="M142.409,14.766l12.374,0l0,0.02c10.176,0.103 19.825,7.37 22.576,17.281c3.799,13.691 -7.114,29.668 -22.437,29.911l-0.139,0.001l0,23.26l-12.374,0l0,-70.473Zm12.374,8.021l0,31.192c0.113,-0.002 0.227,-0.004 0.34,-0.007c6.011,-0.21 11.672,-4.158 13.941,-9.7c3.766,-9.2 -3.225,-21.322 -14.281,-21.485Z" style="fill:#fff;"/><path d="M216.875,14.408c15.364,0 27.839,15.869 27.839,35.416c0,19.546 -12.475,35.415 -27.839,35.415c-15.365,0 -27.839,-15.869 -27.839,-35.415c0,-19.547 12.474,-35.416 27.839,-35.416Zm0.394,11.914c9.308,0 16.864,10.713 16.864,23.909c0,13.195 -7.556,23.908 -16.864,23.908c-9.308,0 -16.865,-10.713 -16.865,-23.908c0,-13.196 7.557,-23.909 16.865,-23.909Z" style="fill:#fff;"/><path d="M307.228,85.549l-16.912,0l-0.014,0.031l-6.565,-0.203l0.001,-0.003c-6.773,-0.141 -13.596,-1.746 -18.536,-6.383c-4.326,-4.061 -7.047,-9.697 -7.791,-15.615l-0.156,-0.001l0.007,-1.554c-0.031,-0.463 -0.05,-0.928 -0.056,-1.392l-0.01,-4.312l0.089,0l0.172,-40.892c2.666,0.011 5.333,0.023 8,0.034l-0.194,46.219c0.67,7.989 6.914,15.604 15.226,15.747c0,0 4.211,0.08 4.211,0.08l-0.001,-0.004l5.617,0l0,-62.423l16.912,0l0,70.671Z" style="fill:#fff;"/><g><path d="M420.215,15.7l-0.001,-0.001c0.123,0 0.245,-0.004 0.368,-0.003c15.757,0.151 30.511,12.152 33.787,27.824c4.208,20.129 -11.965,42.446 -34.154,42.375l0,-0.001l-11.903,0l0,-70.194l11.903,0Zm6,63.655c9.981,-2.101 18.486,-9.951 21.554,-19.691c4.788,-15.202 -4.724,-33.739 -21.449,-37.371l-0.105,-0.022c0,19.028 0,38.056 0,57.084Z" style="fill:#fff;"/><path d="M420.325,16.221c15.705,0.151 30.424,12.138 33.676,27.608c4.199,19.971 -11.928,42.137 -34.045,42.066l0,-69.674c0.123,0 0.246,0 0.369,0Zm5.963,61.121c8.674,-2.685 17.369,-10.742 19.629,-19.565c3.339,-13.03 -4.391,-27.999 -17.747,-32.314l-2.327,-0.697c0,17.11 0.445,35.466 0.445,52.576Z" style="fill:#fff;fill-rule:nonzero;"/></g><path d="M481.768,85.526l-14.532,0l0,-70.759l14.532,0l0.006,-0.001c9.571,0.913 18.287,8.127 20.781,17.586c2.308,8.755 -1.284,18.338 -8.186,24.168c5.719,8.968 13.699,21.364 18.67,29.198l-9.8,-0.006l-15.79,-25.125c-1.792,0.667 -3.694,1.113 -5.681,1.298l0,23.641Zm0,-62.594l0,30.906c6.455,-0.914 12.101,-6.096 13.305,-12.595c1.53,-8.258 -4.622,-17.08 -13.305,-18.311Z" style="fill:#fff;"/><path d="M544.102,48.583c-7.044,-11.139 -13.962,-22.385 -21.033,-33.543c3.663,0.002 7.326,0.004 10.989,0.006l15.411,25.06c5.107,-8.075 10.203,-16.156 15.258,-24.259l0.001,0l0,-0.087l20.968,0l-2.975,4.733l-0.045,0l-40.879,65.058l0,0.079l-19.419,0l-1.646,0.024c7.731,-12.392 15.554,-24.73 23.37,-37.071Z" style="fill:#fff;"/><path d="M105.078,47.331c7.989,12.611 15.984,25.215 23.851,37.824l-1.309,-0.019l-19.831,0l0,-0.089l-12.899,-20.527l-12.374,20.877l-10.717,0.058l17.594,-29.684l-22.639,-36.03l-0.051,0l-2.987,-4.752l21.051,0l0,0.096l1.685,2.701c4.343,6.947 8.72,13.89 13.109,20.829l14.002,-23.626l10.718,-0.057l-19.203,32.399Z" style="fill:#fff;"/></g></svg>